/* XPM */
static char *result[] = {
/* columns rows colors chars-per-pixel */
"50 50 222 2 ",
"   c #010101",
".  c #090606",
"X  c #0C0B0A",
"o  c #120C09",
"O  c #1B120D",
"+  c #0E0E13",
"@  c #0C111B",
"#  c #181615",
"$  c #27160E",
"%  c #271B14",
"&  c #311E12",
"*  c #23221D",
"=  c #39271B",
"-  c #0E1623",
";  c #151B27",
":  c #211F26",
">  c #1F2B20",
",  c #182539",
"<  c #282C27",
"1  c #262829",
"2  c #2B2E29",
"3  c #342824",
"4  c #2D322C",
"5  c #273A2F",
"6  c #393327",
"7  c #30342E",
"8  c #282D39",
"9  c #342A30",
"0  c #2E3C32",
"q  c #29333F",
"w  c #333631",
"e  c #3B3436",
"r  c #353B34",
"t  c #393C36",
"y  c #3A3E38",
"u  c #472C1B",
"i  c #4A321D",
"p  c #54351C",
"a  c #462C22",
"s  c #4A3325",
"d  c #583727",
"f  c #453B35",
"g  c #593B31",
"h  c #693E2C",
"j  c #2F4236",
"k  c #314237",
"l  c #344539",
"z  c #3D423B",
"x  c #354A3D",
"c  c #3C523C",
"v  c #68401C",
"b  c #71441E",
"n  c #54452E",
"m  c #43453D",
"M  c #4A4338",
"N  c #574739",
"B  c #6C4429",
"V  c #73482A",
"C  c #6C4B35",
"Z  c #725233",
"A  c #79653A",
"S  c #172945",
"D  c #1C365C",
"F  c #273549",
"G  c #393C45",
"H  c #253857",
"J  c #1F3A63",
"K  c #243F68",
"L  c #3B4E41",
"P  c #394A46",
"I  c #3B5344",
"U  c #395444",
"Y  c #3E5C4B",
"T  c #2F4C57",
"R  c #384457",
"E  c #3B624D",
"W  c #3E6651",
"Q  c #274369",
"!  c #3A536B",
"~  c #274878",
"^  c #3E697A",
"/  c #434741",
"(  c #464A43",
")  c #4A4D45",
"_  c #494B4B",
"`  c #574C47",
"'  c #435648",
"]  c #4D514A",
"[  c #415D4A",
"{  c #53554C",
"}  c #59564A",
"|  c #464B57",
" . c #4B5354",
".. c #545656",
"X. c #555951",
"o. c #5C5D54",
"O. c #6E5746",
"+. c #685A49",
"@. c #645E52",
"#. c #446752",
"$. c #426C55",
"%. c #4A6C52",
"&. c #566153",
"*. c #5C6156",
"=. c #5E6359",
"-. c #46735B",
";. c #49765D",
":. c #48785D",
">. c #77644D",
",. c #676456",
"<. c #63655B",
"1. c #64685C",
"2. c #6B6A5C",
"3. c #746F5D",
"4. c #49576A",
"5. c #467E62",
"6. c #4A7A60",
"7. c #547D61",
"8. c #4C6573",
"9. c #416F7D",
"0. c #676463",
"q. c #666960",
"w. c #6B6D62",
"e. c #726F60",
"r. c #6D7265",
"t. c #6F736A",
"y. c #737365",
"u. c #797564",
"i. c #7B7967",
"p. c #73766B",
"a. c #76796C",
"s. c #7C7B6C",
"d. c #687174",
"f. c #7C7E71",
"g. c #85531E",
"h. c #8D512E",
"j. c #854838",
"k. c #865438",
"l. c #8F6936",
"z. c #955C44",
"x. c #8A6746",
"c. c #8E7255",
"v. c #B27E5F",
"b. c #847D67",
"n. c #827E6C",
"m. c #817F70",
"M. c #498366",
"N. c #4A8668",
"B. c #4E8969",
"V. c #528465",
"C. c #548867",
"Z. c #538C6A",
"A. c #588D6A",
"S. c #57906C",
"D. c #5C946E",
"F. c #60976F",
"G. c #7D8173",
"H. c #629970",
"J. c #AE8C3F",
"K. c #9C8958",
"L. c #B69253",
"P. c #BFA45C",
"I. c #84816E",
"U. c #8C856B",
"Y. c #848372",
"T. c #8A8672",
"R. c #8D8975",
"E. c #8C8A79",
"W. c #928B75",
"Q. c #928E7A",
"!. c #8C907C",
"~. c #95917D",
"^. c #9B937C",
"/. c #B19066",
"(. c #A0967D",
"). c #A2997F",
"_. c #B0A279",
"`. c #C48F50",
"'. c #C6A353",
"]. c #CA8F6C",
"[. c #CDAA71",
"{. c #2A4E81",
"}. c #2D5389",
"|. c #31588D",
" X c #2E5890",
".X c #325B93",
"XX c #33608D",
"oX c #3A6499",
"OX c #3766A5",
"+X c #3E6FB1",
"@X c #3C73B9",
"#X c #476B8C",
"$X c #63778B",
"%X c #4975AB",
"&X c #3F78C2",
"*X c #447EC8",
"=X c #498192",
"-X c #728C9A",
";X c #4E80BD",
":X c #5D89B9",
">X c #7290A9",
",X c #4B83C9",
"<X c #5789C4",
"1X c #4281D1",
"2X c #879085",
"3X c #969380",
"4X c #9A9682",
"5X c #9D9984",
"6X c #879698",
"7X c #A49C84",
"8X c #A99E84",
"9X c #A29E89",
"0X c #9EA291",
"qX c #ACA186",
"wX c #A6A08A",
"eX c #ABA289",
"rX c #B1A68A",
"tX c #B5AA8A",
"yX c #879CA6",
"uX c #C5AC83",
"iX c #D1B78C",
"pX c #E3CB9F",
/* pixels */
"N.N.N.N.N.N.N.N.N.N.N.N.N.N.N.N.N.N.N.N.N.N.N.N.N.N.Z.Z.Z.B.N.N.N.N.N.N.N.N.N.N.N.N.N.N.N.N.N.N.N.N.",
"N.N.N.N.N.N.N.N.N.N.N.N.N.N.N.N.N.N.N.N.N.N.N.N.Z.S.D.S.Z.Z.N.N.N.N.N.N.B.W :.N.N.N.N.N.N.N.N.N.N.N.",
"N.N.N.N.N.N.N.N.N.N.N.N.N.N.N.N.N.B.Z.S.S.N.S.D.[ I [ V.A.D.D.Z.N.N.N.N.W 3 r :.N.N.N.N.N.N.N.N.N.N.",
"N.N.N.N.N.N.N.N.N.N.N.N.N.N.N.N.Z.D.A.I Y D.D.[ =.r.=.[ A.V.V.D.D.Z.N.Y N z.j.t :.N.N.N.N.N.N.N.N.N.",
"N.N.N.N.N.N.N.N.N.N.N.N.N.N.N.Z.V.;.' w.q.Y I =.p.p.p.*.U %.c L :.M.#.g Z h j.j.2 > > E N.N.N.N.N.N.",
"N.N.N.N.N.N.N.N.N.N.N.N.N.N.B.V.I z w.p.p.&.z w.w.w.r.X.l k w.r.z e a d u & h z.V Z B % M.N.N.N.N.N.",
"N.N.N.N.N.N.N.N.N.N.N.N.N.N.M.[ 1.G.p.t.p.y.y.+.V A m e =.s.p.p.o.g j.s h d z.uXtXuXx.$ :.N.N.N.N.N.",
"N.N.N.N.N.N.N.N.N.N.N.N.M.E Y =.a.t.t.a.3XrX+.>.6XyXb.! ,.^.~.p.9 j.C a C h v.uXpXV i c B.N.N.N.N.N.",
"N.N.N.N.N.N.N.N.N.N.N.M.Y X.*.1.t.t.t.s.eXo.Z ;X1X,X>X0X! ~.eX~.y.` h.h z.iXuXuXx.i l D.D.N.N.N.N.N.",
"N.N.N.N.N.N.N.N.N.N.M.U 1.Y.G.^.T.t.t.f.Q.R @X1X:XK.P./.L.3 4XE.a.R.g j.iX].iXx.u 5 5.B.D.S.N.N.N.N.",
"N.N.N.N.N.N.N.B.D.%.l 4 r.f.8XwX5Xf.^.s.) |.@X:Xc.u o a o T 2.7X4Xp.p.g c.v.B u ( ( %.D.H.S.N.N.N.N.",
"N.N.N.N.N.N.B.D.;.X.a.=.o.q.n.5X5Xf.5X8Xs.P 5 K.l c./.].s =Xr 5X4Xp.^.W.a % % { o.w :.D.D.B.N.N.N.N.",
"N.N.N.N.N.N.N.7.z G.s.qX8X,.=.Y.Y.t.3X5X3.^ 4.+ 3 p v.x.& ! 9.@.E.Y.eXn.<.y.Q.f./ z #.N.N.N.N.N.N.N.",
"N.N.N.N.N.N.M.[ X.s.7XwX9XqXf.p.Y.E.Q.R.' #X9.P r = ; > 7 { $.3.3...w.@.O.} p.p.<.y.X.E M.N.N.N.N.N.",
"N.N.N.N.N.N.5.t a.G.5X9X9XwX3Xt.I.^.^.n.T ^ 9.XX4.| n O.Z 8.H } 4.! k./.c.e.Q.t.t.t.f.z 5.M.N.N.N.N.",
"N.N.N.N.N.M.L P *.t.s.I.4X4XE.E.W.8XqX7X] # 1 c.P.-X=X!.2XoXC n -X<XyX[.g 3X5Xt.t.t.f.l M.N.N.N.N.N.",
"N.N.N.N.N.M.0 / P ] q.y.n.T.).Q.8XeX9X4X) .X%Xs u l./.5X9XK.4.*X).iXtXj 1.^.Y.a.w.] ] 0 M.M.M.N.N.N.",
"N.N.N.N.N.M.0 / <.o.t.s.8X8XU.T.9X5XT.y.Q 1X$Xq.R 9 f '.'.s #X*X1X<X_.Z i I.qXqXqX~.s.l M.N.N.N.N.N.",
"N.N.N.N.N.M.0 z w.a.m.9X9X9X^.Y.4XT.)...@X,Xc.{.F H H G e J F *X1X;XL.A 6 ).wXwXwXeXu.k W B.N.N.N.N.",
"N.N.N.N.N.M.0 z <.n.7X9X9X~.W.W.n.E.@.[.[.].8.K s d s e G ; K *X*X_.{ d &.^.wX9X9X9Xo.t 0 N.N.N.N.N.",
"N.N.N.N.N.M.0 y { q.Y.E.R.(.rXeX^.` ].].`.y.}.S p h.j.f ` O S }.&XP.R p *.4X9X9X9X9XI.) z E N.N.N.N.",
"N.N.N.N.M.M.0 t ..Y.q.w.(.W.9X9X~.+.O.` n 0.~ S   b g.j.h.O @ H @X'.C N y.Y.5XwX9X9XwXW.) j N.N.N.N.",
"N.N.N.N.N.C.r / ( } <.~.8X7Xn.m.I.t A S `  .D @ 1 4.4.4.| + , ~ H s n Q.7Xs.I.9X9XwX9X4X) l S.N.N.N.",
"N.N.N.N.B.x t o.E.8XqXQ.4X4XT.rXqXM J._ O.H @ D 8 : H H F o b.F }.~ t T.T.7XG.Y.4X5X5X~.z l S.N.N.N.",
"N.N.N.N.N.j z G.8X9X9XrXQ.Q.Q.9Xn.G A +.f @ S K K K 9 s F - W.n.R |.oX..7XwXwXs.a.E.3X2.w x S.N.N.N.",
"N.N.N.N.W j z r.s.4X9X9X8XT.8X3X| }.; s | 8 {.OX X{.K >.K S ..4Xe ~ OXJ i.9XwXqXs.y.r.m r x Z.N.N.N.",
"N.N.N.N.x w z =.y.f.R.5X5Xs.R._ OX.X8 m.,.! &X&X X|.H >.K K f W.T.8 .XOXR ~.9XwX3Xa.t.X.r j N.N.N.N.",
"N.N.N.N.P w y o.7XE.y.m.3Xe.7Xq @XS p.4X..OX*X@X#X4.` x.{.H g m.W.8 .X+XF ~.9X5XY.] q.X.t j N.N.N.N.",
"N.N.N.N.x 7 m ~.8X8X8X2.u.7X(.F %X, T.u.K >X6X2XU.c.>.@.| M a M ).1 .X@XF E.9X~.p.X.( z 0 :.N.N.N.N.",
"N.N.N.N.U 0 z u.4X5XQ...o.Q.W.y.K S R.U.# $X6Xt.P d.S 8 G H 1 M wXe.H Q <.T.n.s.t.f.X.r r Z.B.N.N.N.",
"N.N.N.N.M.j r z y.a.f.m.E.W.8X9Xp.<.n.% . 3 f = X #   O = = = t W.T.<.@.R.8X^.p.m.f.X.y 0 A.Z.N.N.N.",
"N.N.N.N.N.j 7 w o.s.7XtXtXrXW.5XQ.r X   = L.`.V $     $ u g.b o X @.T.T.).Q.s.~.tXT.{ t k Z.N.N.N.N.",
"N.N.N.N.N.j 2 w ] Y.wX9X9XwX5XY.n.*     = l.g.v o     o $ $ & O   @.qXtXI.Y.!.eXwX5Xo.w 0 N.N.N.N.N.",
"N.N.N.N.B.0 < 4 w r.9X9X9X5XG.s.^.Q.b.+ O $ % # X X X X X . . M I.5X~.Y.^.R.R.9X~.s.] 4 0 N.N.N.N.N.",
"N.N.N.N.N.$.5 2 7 2.9X9X5XG.p.r.Y.9X7Xi.^.^.^.~.Q.Q.Q.T.u.W.i.~.5X^.^.qXT.Y.i.I.a.o.y 2 0 N.N.N.N.N.",
"N.N.N.N.B.5.0 < 4 ) R.4Xs.s.y.o.E.4XY.wX9X9X9X9X9X9X4XR.rXwXqXR.~.Q.eX7X1.E.qX^.w.X.w < j N.N.N.N.N.",
"N.N.N.N.N.S.%.4 4 w o.2.) 2.qXE.a.I.s.~.9X9X9X9X9X9X~.E.9X9XwX).Y.eX5XY.{ ).wXG.] m 7 k ;.N.N.N.N.N.",
"N.N.N.N.N.D.7.k < 4 e t { ).eXT.s.9XR.Y.4X9X9X9X9XQ.n.9X9X9X^.T.I.G.R.s.] Y.R.*.z e 7 -.D.N.N.N.N.N.",
"N.N.N.N.N.D.F.V.k < w y / 2.I.<.E.9XeX5XY.E.4X9XE.p.w.y.4X~.y.7XwXY.7XT.{ *.} m r 4 L M.D.N.N.N.N.N.",
"N.N.N.N.N.Z.F.D.%.x 4 r t / X.] w.4XW.wXW.o.s.Y.s.4X(.b.y.2.) s.i.s.wXQ.] z r 7 4 2 #.D.F.N.N.N.N.N.",
"N.N.N.N.B.A.F.M.5.-.l 4 4 r z / { y.X.u.e./ X.p.7XeX8X8Xi.] z { { *.s.{ y t 7 4 c W ;.V.D.N.N.N.N.N.",
"N.N.N.N.N.D.V.6.;.5.L 2 < 4 r t y ) m m m z ) W.9X9X9X9Xy.] y ( ) ( m y 4 4 4 7 U 6.5.D.D.N.N.N.N.N.",
"N.N.N.N.N.F.D.6.6.6.-.j < 4 4 w r t t t t y y o.Q.5X4XE.X.L w r y y 7 4 < 4 z -.;.7.D.D.B.N.N.N.N.N.",
"N.N.N.N.N.Z.F.V.6.6.6.P 0 4 4 4 w 4 2 w w 4 r y o.<.r.7.6.6.L w w w 4 4 < x 6.M.A.H.F.N.N.N.N.N.N.N.",
"N.N.N.N.N.N.F.F.C.C.C.C.:.L 4 4 2 2 x U U P I ' I [ 6.6.6.6.;.I x 4 k L U -.A.F.D.A.N.N.N.N.N.N.N.N.",
"N.N.N.N.N.N.Z.H.H.H.H.S.A.;.Y Y Y Y -.6.A.A.S.6.6.6.6.A.V.6.6.C.;.Y #.6.6.A.D.Z.N.N.N.N.N.N.N.N.N.N.",
"N.N.N.N.N.N.N.Z.H.D.Z.N.Z.Z.6.6.C.D.A.D.D.Z.D.D.A.6.6.C.D.A.D.F.A.6.6.6.Z.F.B.N.N.N.N.N.N.N.N.N.N.N.",
"N.N.N.N.N.N.N.N.B.B.N.N.B.D.D.D.F.Z.B.B.B.N.N.Z.F.D.D.6.M.D.Z.B.B.D.F.F.F.B.N.N.N.N.N.N.N.N.N.N.N.N.",
"N.N.N.N.N.N.N.N.N.N.N.N.N.B.F.F.Z.N.N.N.N.N.N.N.N.B.F.D.D.B.N.N.N.Z.D.F.B.N.N.N.N.N.N.N.N.N.N.N.N.N.",
"N.N.N.N.N.N.N.N.N.N.N.N.N.N.N.N.N.N.N.N.N.N.N.N.N.N.N.N.N.N.N.N.N.N.N.N.N.N.N.N.N.N.N.N.N.N.N.N.N.N."
};
