/* XPM */
static char *result[] = {
/* columns rows colors chars-per-pixel */
"50 50 198 2 ",
"   c #000000",
".  c #0B0607",
"X  c #060B04",
"o  c #0A0D05",
"O  c #0F0C0B",
"+  c #130B0B",
"@  c #160E0D",
"#  c #0B1106",
"$  c #0C1209",
"%  c #0E1A09",
"&  c #14120A",
"*  c #121C0B",
"=  c #1B1211",
"-  c #211615",
";  c #201816",
":  c #261A18",
">  c #2B1E1B",
",  c #13230B",
"<  c #142D0B",
"1  c #192A0F",
"2  c #17350F",
"3  c #18320F",
"4  c #192913",
"5  c #1A3711",
"6  c #1D3614",
"7  c #272619",
"8  c #34211C",
"9  c #233D14",
"0  c #293A18",
"q  c #30371D",
"w  c #272B26",
"e  c #282C27",
"r  c #2B2F29",
"t  c #372825",
"y  c #3A2C26",
"u  c #2D322C",
"i  c #31352F",
"p  c #3C3828",
"a  c #2E3C32",
"s  c #333631",
"d  c #3E3632",
"f  c #353B34",
"g  c #393C36",
"h  c #3C3E38",
"j  c #462E2A",
"k  c #423C26",
"l  c #45322A",
"z  c #4B332B",
"x  c #51352F",
"c  c #543C2C",
"v  c #433B36",
"b  c #4C3932",
"n  c #463D3A",
"m  c #513630",
"M  c #533A33",
"N  c #5B3E35",
"B  c #5A3F38",
"V  c #613F36",
"C  c #1D430E",
"Z  c #1D4313",
"A  c #21420D",
"S  c #224313",
"D  c #254A14",
"F  c #2B4C17",
"G  c #25441A",
"H  c #2C431D",
"J  c #254A19",
"K  c #2B4B1A",
"L  c #354C1B",
"P  c #2D4421",
"I  c #294724",
"U  c #374C25",
"Y  c #2F4236",
"T  c #314237",
"R  c #364D36",
"E  c #344539",
"W  c #3D423B",
"Q  c #354A3D",
"!  c #3B4B3C",
"~  c #395538",
"^  c #474C28",
"/  c #50482B",
"(  c #405026",
")  c #484831",
"_  c #42443E",
"`  c #534233",
"'  c #5D4136",
"]  c #53433A",
"[  c #5A443A",
"{  c #44553A",
"}  c #445B39",
"|  c #604236",
" . c #614239",
".. c #364F41",
"X. c #3A4E41",
"o. c #375243",
"O. c #3A5343",
"+. c #3B5944",
"@. c #3D5C4B",
"#. c #3D634E",
"$. c #3F6B49",
"%. c #3F6450",
"&. c #434741",
"*. c #484741",
"=. c #464A43",
"-. c #4A4D46",
";. c #4C4F49",
":. c #534740",
">. c #544C45",
",. c #594D45",
"<. c #574E49",
"1. c #445545",
"2. c #4A5046",
"3. c #405749",
"4. c #4E544A",
"5. c #415D4D",
"6. c #515C42",
"7. c #53544B",
"8. c #5F564C",
"9. c #54594D",
"0. c #595B4F",
"q. c #565A51",
"w. c #5D5E53",
"e. c #5C5F58",
"r. c #67564A",
"t. c #635A4F",
"y. c #71554A",
"u. c #655B51",
"i. c #6A5E52",
"p. c #46664A",
"a. c #54644E",
"s. c #43714A",
"d. c #416551",
"f. c #426C54",
"g. c #4B6B53",
"h. c #586354",
"j. c #5E6159",
"k. c #4A7056",
"l. c #46735B",
"z. c #49755C",
"x. c #4B7A5C",
"c. c #53765A",
"v. c #6B6357",
"b. c #65655A",
"n. c #64695B",
"m. c #6A6A5B",
"M. c #756A5C",
"N. c #7A6D5D",
"B. c #72705F",
"V. c #477E62",
"C. c #4A7A61",
"Z. c #5E7762",
"A. c #507F61",
"S. c #676C60",
"D. c #6C6E63",
"F. c #6D7265",
"G. c #737263",
"H. c #74776A",
"J. c #797768",
"K. c #767A6D",
"L. c #7C7C6C",
"P. c #7A7E72",
"I. c #847C69",
"U. c #8A7A68",
"Y. c #498466",
"T. c #4A8668",
"R. c #4D8969",
"E. c #528465",
"W. c #588563",
"Q. c #548867",
"!. c #548768",
"~. c #538C6A",
"^. c #598D6A",
"/. c #57916C",
"(. c #5C946E",
"). c #60976F",
"_. c #629971",
"`. c #83816F",
"'. c #858472",
"]. c #898674",
"[. c #8C8975",
"{. c #8C8A79",
"}. c #928B76",
"|. c #918E7A",
" X c #94917E",
".X c #9C947D",
"XX c #A0967D",
"oX c #A1987F",
"OX c #979480",
"+X c #999682",
"@X c #9D9984",
"#X c #A39D85",
"$X c #A99F85",
"%X c #A29E89",
"&X c #ABA186",
"*X c #A7A189",
"=X c #ABA289",
"-X c #B0A487",
/* pixels */
"T.T.T.T.T.T.T.T.T.T.T.T.T.T.T.T.T.T.T.T.T.T.Y.Y.T.T.~.R.~.R.T.T.T.T.T.T.T.T.T.T.T.T.T.T.T.T.T.T.T.T.",
"T.T.T.T.T.T.T.T.T.T.T.T.T.T.T.T.T.T.T.Y.T.T.T.Y.R./.).^.Q.~.R.T.T.T.T.T.T.T.T.T.T.T.T.T.T.T.T.T.T.T.",
"T.T.T.T.T.T.T.T.T.T.T.T.T.T.T.T.Y.Y.~./.x.$.$.s.~ R ! 5.g.W.^.~.R.T.T.T.T.T.T.T.T.T.T.T.T.T.T.T.T.T.",
"T.T.T.T.T.T.T.T.T.T.T.T.T.T.T.T.~.(.E.R I J Z Z H ^ l z m n 1.c.^.~.T.T.T.T.T.T.T.T.T.T.T.T.T.T.T.T.",
"T.T.T.T.T.T.T.T.T.T.T.T.T.T.T.~.Y.s.I I Z 9 Z H c N N B B M z y 1.z.V.R.T.T.T.T.T.T.T.T.T.T.T.T.T.T.",
"T.T.T.T.T.T.T.T.T.T.T.T.T.T.R.E.~ 9 Z Z C A Z 7 > > > 8 x N ' c j d 1.V.T.R.R.T.T.R.T.T.T.T.T.T.T.T.",
"T.T.T.T.T.T.T.T.T.T.T.T.T.T.Y.~ H S Z Z C S 6 X       . @ 8 z ' B B ) p.R.(._.~.!.(.)./.T.T.T.T.T.T.",
"T.T.T.T.T.T.T.T.T.T.T.T.Y.%.+.P Z Z Z S D Z %             X + t z V ^ J 1.g.k./._._._._./.T.T.T.T.T.",
"T.T.T.T.T.T.T.T.T.T.T.Y.5.4.U A J Z A 6 9 G $           .     . - x / K H 4.9.o.k.!.~.).(.T.T.T.T.T.",
"T.T.T.T.T.T.T.T.T.T.T.o.h.} C C J S 3 * % G #                     - m U A U n.S.4.%.C.E.)./.T.T.T.T.",
"T.T.T.T.T.T.T.~.(.k.E u 6.D Z Z J J , X * J #                 .     - L Z C U n.F.=.f.(.)./.T.T.T.T.",
"T.T.T.T.T.T.T.(.c.q.K.8.` L G Z D D ,   X , X                         < J C S { j.s x.(.(.R.T.T.T.T.",
"T.T.T.T.T.T.T.C.W K.J.y.B p K 2 6 A o                                 # K Z Z K -.&.%.Y.T.T.T.T.T.T.",
"T.T.T.T.T.T.Y.#.9.L.U. .z 0 D < 1 9 X                                 o K S Z Z ~ H.q.%.Y.T.T.T.T.T.",
"T.T.T.T.T.T.V.g K.L.y.N 8 & G 1 $ *                                   o F S C Z G q.P.E V.T.T.T.T.T.",
"T.T.T.T.T.Y...&.e.u.B M >   S 6                                       X K J Z Z H h.P.W V.T.T.T.T.T.",
"T.T.T.T.T.Y.a &.&.] V j .   9 5   X                                     , K Z Z C ~ w.a Y.Y.T.T.T.T.",
"T.T.T.T.T.Y.a _ w.B N y .   0 4                                         , D Z S S G ! f V.T.T.T.T.T.",
"T.T.T.T.T.Y.i _ r.' m =     $ .                                         % D S G S S R g f.R.T.T.T.T.",
"T.T.T.Y.Y.Y.a h ] B m @   .                                             , L D K D Z p.g a T.T.T.T.T.",
"T.T.T.T.T.Y.a f z ' m &                                                 , K F q L G a.-.W #.T.T.T.T.",
"T.T.T.T.T.Y.a s v ' x @                                                 $ 6 D ^ ^ 9 0.}.=.Y T.T.T.T.",
"T.T.T.T.T.Q.f h l ' x @                                                   o S k ( 9 l  X-.E ~.T.T.T.",
"T.T.T.T.T.Q g 7.` ' m @                                                   $ G L ^ q d {.W R /.T.T.T.",
"T.T.T.T.T.Y W F.[  .m @                                                   X 4 l V z v S.g Q /.T.T.T.",
"T.T.T.T.%.Y W b.` N m @                                                     . z V j v X.s E ^.T.T.T.",
"T.T.T.T...s W q.] ' M @                                                     + l ' z <.q.f E T.T.T.T.",
"T.T.T.T.Q s h >.[ | x @                                                     O z  .z <.q.s E T.T.T.T.",
"T.T.T.T...i &.I.,.| x @                                                     . z V z v W a V.T.T.T.T.",
"T.T.T.T.o.a W v.[  .x +                             X                   .   + j N z v g a ^.T.T.T.T.",
"T.T.T.T.Y.Y f f b  .M =                                               X X   O j  .m n g a ~.~.T.T.T.",
"T.T.T.T.T.a i d n ] M y : = = @ = @ = = = = = = @ @ ; ; = ; = ; - > t y t > > j B ] &.g a /.T.T.T.T.",
"T.T.T.T.T.Y e i *.u.N.G.M.i.u.<.,.>.,.,.>.n v n n n ] :.:.r.8.t.i.M.N.N.t.8.8.u.u.M.9.s a T.T.T.T.T.",
"T.T.T.T.T.Y e u f F.%X@X@XOXL.K.}.@XXX].[.oX.XOXOX|.OX{.].{.J.@X%X%X X]. X'.].@X XK.;.u a T.T.T.T.T.",
"T.T.T.T.T.f.u u i v.%X%X@XI.K.D.'.%X%X'.$X=X=X%X%X%X%X|.I.XX`.+X%X.X.X$X[.'.L.I.K.j.g r a T.T.T.T.T.",
"T.T.T.T.T.C.Y w r -.[.@XP.L.F.e.].@X'.%X$X%X%X%X%X%X+X[.-X=X$X[. X}.&X%Xb.{.=X.XF.9.s w T T.T.T.T.T.",
"T.T.T.T.T./.k.u r s w.m.;.v.=X{.H.I.P.OX%X%X%X%X%X%XOX{.%X%X%X#X'.&X@X'.7.oX#X'.;._ i T z.T.T.T.T.T.",
"T.T.T.T.T.(.A.T e i f g 7.XX=X{.L.#X|.I.OX%X%X%X%X|.I.$X%X%X.X].'.L.|.L.2.'.[.w._ f i l./.R.T.T.T.T.",
"T.T.T.T.T.(.).Y.T e s h &.b.`.n.{.%X=X@X'.{.@X%X{.J.D.G.+XOXD.$X#X'.#X'.7.w.7._ s i ..A.(.T.T.T.T.T.",
"T.T.T.T.T.~.).(.l.E u f h &.q.;.D.+X|.$X}.e.L.'.J.+X+XI.G.m.-.L.L.L.=X|.7.W f i i e f.(.).T.T.T.T.T.",
"T.T.T.T.T./.(.E.C.l.E u u s W &.7.G.q.J.B.&.9.J.#X=X=X#XJ.4.W 7.7.w.L.9.h g u r ! d.z.E.(.T.T.T.T.T.",
"T.T.T.T.T.(.E.C.z.C.o.u e u f g h -.W _ _ _ -.}.*X%X%X%XG.;.h =.-.-._ g u u u u o.C.C.(.(.T.T.T.T.T.",
"T.T.T.T.T.).(.C.C.C.l.f e r u s f g g g f g h h.{.+X X{.e.X.s f g g s u r u ..l.C.A.(.(.T.T.T.T.T.T.",
"T.T.T.T.T.^.).E.C.C.C...a u u i s r u s s u f h 0.n.F.Z.C.C.X.s f s r r w ..C.A.^.).(.R.T.T.T.T.T.T.",
"T.T.T.T.T.T.).).~.!.!.!.C...u u e r ! O.O...3.3.3.5.C.C.C.C.z.O...r g o...C.!.)./.(.R.T.T.T.T.T.T.T.",
"T.T.T.T.T.T.~.)._._._./.~.z.@.@.@.@.l.C.^.^.^.C.x.C.C.^.Y.C.C.!.l.@.f.C.C.~.).~.T.T.T.T.T.T.T.T.T.T.",
"T.T.T.T.T.T.T.~._.(.R.T.~.^.C.C.Q.(.(.(.(.~.(.(.(.C.C.~.(.(./._.^.C.C.C.^.).R.T.T.T.T.T.T.T.T.T.T.T.",
"T.T.T.T.T.T.T.T.~.T.T.T.T.).(.(.(.~.R.R.T.T.T.R.(.(.^.A.E.(.~.R.!.(.(.(.).R.T.T.T.T.T.T.T.T.T.T.T.T.",
"T.T.T.T.T.T.T.T.T.T.T.T.T.R.).).~.T.T.T.T.T.T.T.T.R.(.(.(.R.T.T.T.~.).).R.T.T.T.T.T.T.T.T.T.T.T.T.T.",
"T.T.T.T.T.T.T.T.T.T.T.T.T.T.T.T.T.T.T.T.T.T.T.T.T.T.T.T.T.T.T.T.T.T.T.T.T.T.T.T.T.T.T.T.T.T.T.T.T.T."
};
