/* XPM */
static char *result[] = {
/* columns rows colors chars-per-pixel */
"50 50 201 2 ",
"   c #213D15",
".  c #2E3F1B",
"X  c #272B26",
"o  c #282C27",
"O  c #2B2F29",
"+  c #3E2B25",
"@  c #2D322C",
"#  c #3C3D20",
"$  c #31352F",
"%  c #3A3328",
"&  c #2E3C32",
"*  c #333631",
"=  c #353B34",
"-  c #393C36",
";  c #3A3E38",
":  c #432E27",
">  c #432F29",
",  c #45342B",
"<  c #4C332D",
"1  c #4B382B",
"2  c #533A2E",
"3  c #4D3631",
"4  c #423A35",
"5  c #4E3A34",
"6  c #443D39",
"7  c #4B3D38",
"8  c #523A33",
"9  c #5B3D34",
"0  c #563F38",
"q  c #593F38",
"w  c #1D440E",
"e  c #1E4313",
"r  c #21430E",
"t  c #224414",
"y  c #234A12",
"u  c #2C4E17",
"i  c #24441B",
"p  c #2F431D",
"a  c #244C1A",
"s  c #2C4C1A",
"d  c #39431F",
"f  c #334B1E",
"g  c #2F511A",
"h  c #36521F",
"j  c #2A4824",
"k  c #334B27",
"l  c #394827",
"z  c #3B4C24",
"x  c #2E5023",
"c  c #355224",
"v  c #3E5329",
"b  c #2F4236",
"n  c #314237",
"m  c #344539",
"M  c #3D423B",
"N  c #354B38",
"B  c #354A3C",
"V  c #395137",
"C  c #434B27",
"Z  c #4B4C2C",
"A  c #415626",
"S  c #43552B",
"D  c #474E31",
"F  c #4D4B35",
"G  c #42443E",
"H  c #4C433D",
"J  c #554333",
"K  c #5E4236",
"L  c #53433B",
"P  c #5C443C",
"I  c #5C493E",
"U  c #485637",
"Y  c #59573C",
"T  c #565A3B",
"R  c #614336",
"E  c #61463D",
"W  c #62493E",
"Q  c #364F41",
"!  c #3A4E41",
"~  c #375243",
"^  c #3A5343",
"/  c #3C5943",
"(  c #3D5C4B",
")  c #3D634E",
"_  c #3F6450",
"`  c #444641",
"'  c #494542",
"]  c #454A43",
"[  c #4A4C45",
"{  c #4C4F49",
"}  c #534740",
"|  c #5D4642",
" . c #544B43",
".. c #5C4B42",
"X. c #435B44",
"o. c #405749",
"O. c #4E554A",
"+. c #465948",
"@. c #53544C",
"#. c #515A4D",
"$. c #5C5A48",
"%. c #5A5A4F",
"&. c #5C5651",
"*. c #565A51",
"=. c #5C5E54",
"-. c #614641",
";. c #644B43",
":. c #694F45",
">. c #644F4A",
",. c #6A4F49",
"<. c #635344",
"1. c #6B5246",
"2. c #645944",
"3. c #65534C",
"4. c #6D544B",
"5. c #665A4D",
"6. c #6E5B4B",
"7. c #72564E",
"8. c #73594F",
"9. c #6D5551",
"0. c #6C5B52",
"q. c #6A5D59",
"w. c #705751",
"e. c #755C53",
"r. c #785D54",
"t. c #46654F",
"y. c #4A614E",
"u. c #566348",
"i. c #416551",
"p. c #436C55",
"a. c #4B6A54",
"s. c #596454",
"d. c #5D6059",
"f. c #447354",
"g. c #4A7356",
"h. c #46735B",
"j. c #49765D",
"k. c #4C795C",
"l. c #517359",
"z. c #646455",
"x. c #6E6457",
"c. c #65655B",
"v. c #6B655A",
"b. c #65685B",
"n. c #6C6A5B",
"m. c #776157",
"M. c #7A6157",
"N. c #72705F",
"B. c #477E62",
"V. c #4A7A60",
"C. c #507F61",
"Z. c #5B7A61",
"A. c #6A6E63",
"S. c #766E60",
"D. c #6C7265",
"F. c #727264",
"G. c #7C7464",
"H. c #7A7867",
"J. c #73766A",
"K. c #767A6E",
"L. c #7B7B6C",
"P. c #7B7E72",
"I. c #837867",
"U. c #817D6B",
"Y. c #498365",
"T. c #4A8668",
"R. c #4D8969",
"E. c #528465",
"W. c #548867",
"Q. c #548768",
"!. c #538C6A",
"~. c #598D6A",
"^. c #57916C",
"/. c #5C946E",
"(. c #60976F",
"). c #7D8075",
"_. c #629971",
"`. c #82806E",
"'. c #8A836F",
"]. c #90826F",
"[. c #858372",
"{. c #898573",
"}. c #8C8975",
"|. c #8C8A79",
" X c #908674",
".X c #928B76",
"XX c #918D79",
"oX c #94917E",
"OX c #9B947C",
"+X c #A0977E",
"@X c #A1987F",
"#X c #979480",
"$X c #999681",
"%X c #9C9984",
"&X c #A39D85",
"*X c #A99F85",
"=X c #A29E89",
"-X c #ABA186",
";X c #A7A189",
":X c #ABA289",
">X c #B0A487",
/* pixels */
"T.T.T.T.T.T.T.T.T.T.T.T.T.T.T.T.T.T.T.T.T.T.T.T.T.T.!.R.R.R.T.T.T.T.T.T.T.T.T.T.T.T.T.T.T.T.T.T.T.T.",
"T.T.T.T.T.T.T.T.T.T.T.T.T.T.T.T.T.T.T.T.T.T.T.T.!.^.(.~.~.!.T.T.T.T.T.T.T.T.T.T.T.T.T.T.T.T.T.T.T.T.",
"T.T.T.T.T.T.T.T.T.T.T.T.T.T.T.T.T.T.^.!.Y.f.f.k.t.V X.a.l.~./.!.T.T.T.T.T.T.T.T.T.T.T.T.T.T.T.T.T.T.",
"T.T.T.T.T.T.T.T.T.T.T.T.T.T.T.T.!.^.W.V j g a a p , 1 4 J  .y.k.~.^.T.T.T.T.T.T.T.T.T.T.T.T.T.T.T.T.",
"T.T.T.T.T.T.T.T.T.T.T.T.T.T.T.!.E.f.b i t t e p 2 9 9 q K 8 , % y.V.Y.T.T.T.T.T.T.T.T.T.T.T.T.T.T.T.",
"T.T.T.T.T.T.T.T.T.T.T.T.T.T.R.E.V   t e w t e , : + < 3 3 9 R 8 3 % o.B.T.R.T.T.T.T.T.T.T.T.T.T.T.T.",
"T.T.T.T.T.T.T.T.T.T.T.T.T.T.Y.~ k t e t r e p 6.3 : 8.4.3 8 1 9 K 9 F t.R././.!.!.(._.!.T.T.T.T.T.T.",
"T.T.T.T.T.T.T.T.T.T.T.T.Y.) ( l t e e e a t Y e.5 : e.8.P 4.;.< 8 9 S l X.g.g./._._._._.!.T.T.T.T.T.",
"T.T.T.T.T.T.T.T.T.T.T.Y.( #.l t i e t t v a 1.r.8 : e.8.-.r.r.e.8 3 Z f . O.#.~ g.!.Q././.T.T.T.T.T.",
"T.T.T.T.T.T.T.T.T.Y.T.~ s.u.a w a e f Y Y f $.r.5 : 8.8.E e.r.e.P 8 2 z r V A.A.O._ k.W./.^.T.T.T.T.",
"T.T.T.T.T.T.T.R./.g.n $ u.s e e s t Z r.6.u 2.r.5 > e.8.E e.r.r.W 7.E f w r T D.D.] p./._./.T.T.T.T.",
"T.T.T.T.T.T.R./.l.*.K.&.J f i   s r D r.e.Z 1.r.5 : e.8.E r.r.e.P 7.e.T a w t u.=.* k././.T.T.T.T.T.",
"T.T.T.T.T.T.R.C.M K.K.M.9 # y k U u 2.r.r.;.7.e.8 : 8.7.E r.r.e.W 7.r.6.g e e k ] M i.Y.T.T.T.T.T.T.",
"T.T.T.T.T.T.Y.( #.P.].:.3 # t l T f e.r.r.W 7.e.5 : e.8.E r.r.r.E 7.r.6.f e e t X.J.*._ Y.T.T.T.T.T.",
"T.T.T.T.T.T.B.n K.L.r.K : J c z 8.F 8.r.r.;.7.r.5 > e.8.E r.r.r.W 7.r.6.g e e t j d.P.m B.T.T.T.T.T.",
"T.T.T.T.T.Y.Q ` z.v.-.9 , W S z r.-.8.r.r.-.7.r.5 : e.w.E r.e.r.E 7.M.6.A y e e j b.P.M B.T.T.T.T.T.",
"T.T.T.T.T.Y.& ' G } K < -.;.S k r.;.8.M.r.;.7.r.8 : e.8.P r.r.r.E 7.r.r.Y y t t e U *.& B.T.T.T.T.T.",
"T.T.T.T.T.Y.& G =.L K < ;.W U D r.R e.r.r.;.7.r.5 : w.8.P r.r.r.W 7.r.r.2.u t e t x O.= Y.T.T.T.T.T.",
"T.T.T.T.T.Y.& G c.E < P 8.W 6.6.8.W 8.M.e.;.3.r.5 : e.8.P m.r.r.W 7.m.r.$.y y t t e / ; p.T.T.T.T.T.",
"T.T.T.T.T.Y.& ;  .E < | 0.;.e.r.8.W 8.r.r.;.4.r.8 , 8.e.K e.e.r.E 9.m.e.Y u u s a e +.- & T.T.T.T.T.",
"T.T.T.T.T.Y.& - 5 K < 3 5 4 4  .r.E e.r.e.| >.w.8 > 9.9.P r.r.r.W 8.:.3 S a u d z r s.[ M ) T.T.T.T.",
"T.T.T.T.T.Y.& * 5 K < L 9.-.w.r.e.W e.r.&.' ' } 7 % { ' G ..r.r.E 7.e.w.<.z g , C t v..X] b T.T.T.T.",
"T.T.T.T.T.W.= G < R < P e.-.e.r.e.E r.r.q.' 6 3.8 > &.' 6 0.m.r.E 7.r.e.4.W h l v   L $X] m !.T.T.T.",
"T.T.T.T.T.B - @.L R < P e.;.r.r.e.E 8.r.r.;.>.r.8 > w.4.P r.e.r.W 6.r.m.,.W h l Z . H XXG N ^.R.T.T.",
"T.T.T.T.T.b M J.<.K < P w.;.r.e.e.E e.r.e.;.4.r.7 > r.7.E r.r.r.E w.M.M.:.1.F , R < 7 v.- B ^.T.T.T.",
"T.T.T.T._ b M b.I K < L 3.} 3.0.r.E e.r.r.-.7.r.5 > e.w.E r.r.r.E 0.w.3.....| 3 R 3 ' ! = m !.T.T.T.",
"T.T.T.T.B = M *. .K 3 3 0 7 L ;.e.E e.e.r.;.7.r.5 > w.w.E r.r.e.E w.4.L L 7 5 > R < &.*.- b T.T.T.T.",
"T.T.T.T.B * ; @.;.K < P w...e.e.r.E e.r.r.;.7.r.5 > e.w.-.r.e.e.E 7.r.e.>.,.;.3 E < &.*.= b T.T.T.T.",
"T.T.T.T.Q * ` '.2.R < -.e.-.r.r.e.E e.r.r.;.7.r.5 : e.8.E e.r.r.E 8.r.r.:.,.W < E 3 6 M & V.T.T.T.T.",
"T.T.T.T.~ & M v.I R < P e.;.r.r.e.E e.r.e.;.,.r.5 : w.e.E e.r.r.E 7.r.r.:.,.;.< R < 6 - = ^.T.T.T.T.",
"T.T.T.T.Y.b = - 7 R < | e.W r.M.r.;.r.M.r.:.7.r.8 > r.r.-.r.r.r.W 8.M.M.,.1.;.1 P 8 H - & !.!.T.T.T.",
"T.T.T.T.T.= $ * H | K 4.e.:.0.4.;.0 ;.-.;.0 P -.< : -.-.5 ;.>.,.L :.4.3.;.1.| 8 I ..' ; & ^.T.T.T.T.",
"T.T.T.T.T.b O $ [ v.}. X{.U.I.v.x.0.5.0.$.} H H H ' L  . .5.5.0.x.N.I.I.0.c.n.G.S.G.*.* & T.T.T.T.T.",
"T.T.T.T.T.b X @ = F.=X=X=X%XU.L.XX=X&X{.}.OXOX#XXX#X#X}.}.|.K.%X=X=XOX'.OX{.}.%XoXK.{ $ & T.T.T.T.T.",
"T.T.T.T.T.p.@ @ $ n.=X=X%XU.K.D.[.=X=X[.*X;X;X=X=X=X%XXXU.@X'.%X%XOXOX-X}.[.K.U.L.z.- O & T.T.T.T.T.",
"T.T.T.T.T.B.& X O [ }.$XP.P.F.=.{.%X[.*X;X=X=X=X=X=X$X|.-X-X-X}.#X.X-X=Xc.|.>XOXA.*.* X b T.T.T.T.T.",
"T.T.T.T.T.^.g.@ @ * *.n.{ v.>X{.J.U.K.$X=X=X=X=X=X=XoX|.=X=X=X&X[.-X%X{.O.+X=X[.O.M @ = j.T.T.T.T.T.",
"T.T.T.T.T./.C.n X @ - ; @.+X:X{.P.*XXXU.$X=X=X=X=XXXU.*X=X=XOX}.`.)..X).{ {.|.s.M - * h./.T.T.T.T.T.",
"T.T.T.T.T./.(.E.n o * ; ` b.[.c.}.=X:X%X[.|.$X=X|.K.A.F.$XoXF.*X;X[.*X{.{ %.$.M - @ Q E./.T.T.T.T.T.",
"T.T.T.T.T.!././.h.m @ - ; ' *.{ A.%XXX*X.Xs.L.[.K.OX+XU.F.n.[ L.L.H.;X|.O.G - @ @ O i.(./.T.T.T.T.T.",
"T.T.T.T.T.~.(.E.B.p.m & @ * M ' @.F.*.H.N.' *.K.&X:X:X=XG.{ ! @.*.=.U.@.; - @ O ! _ h.E./.T.T.T.T.T.",
"T.T.T.T.T./.E.V.V.V.Q @ o O - ; ; ] M G G M [  X*X=X=X=XF.[ ; ] [ ] G - @ @ @ & ~ V.V././.T.T.T.T.T.",
"T.T.T.T.T.(./.V.V.V.h.& X O O * - - - - - - ; s.XX$X$X{.=.! * - - - * $ o O B h.V.V././.R.T.T.T.T.T.",
"T.T.T.T.T.~.(.Y.V.V.V.Q & @ @ $ * @ O * * @ - - =.c.D.Z.V.V.Q $ * * O O X ! V.E.~._.(.R.T.T.T.T.T.T.",
"T.T.T.T.T.T.(.(.!.Q.Q.Q.V.Q @ O O O ! ~ Q Q ^ o.( o.V.V.V.V.V.^ ! O n ^ Q V.Q.(.^.~.R.T.T.T.T.T.T.T.",
"T.T.T.T.T.T.!._._._._.~.!.j.( ( ( ( h.V.~.~.~.V.V.V.V.!.E.V.V.E.h.( p.V.B.~./.R.T.T.T.T.T.T.T.T.T.T.",
"T.T.T.T.T.T.T.!._./.!.T.!.!.V.V.Q.~././.(.!./././.V.V.~.(.~./._.~.V.V.V.~.(.R.T.T.T.T.T.T.T.T.T.T.T.",
"T.T.T.T.T.T.T.T.R.R.T.Y.R.(./.(.(.!.R.R.T.T.R.!././.~.V.Y./.!.R.!.~.(./.(.!.T.T.T.T.T.T.T.T.T.T.T.T.",
"T.T.T.T.T.T.T.T.T.T.T.T.T.R./.(.!.T.T.T.T.T.T.T.T.R./././.R.T.T.Y.!.(.(.R.T.T.T.T.T.T.T.T.T.T.T.T.T.",
"T.T.T.T.T.T.T.T.T.T.T.T.T.T.T.T.T.T.T.T.T.T.T.T.T.T.T.T.T.T.T.T.T.T.T.T.T.T.T.T.T.T.T.T.T.T.T.T.T.T."
};
