/* XPM */
static char *result[] = {
/* columns rows colors chars-per-pixel */
"50 50 197 2 ",
"   c #1F1A18",
".  c #211614",
"X  c #221816",
"o  c #231C1B",
"O  c #2A1D1B",
"+  c #2B2116",
"@  c #24221E",
"#  c #2E221D",
"$  c #31241D",
"%  c #32281E",
"&  c #252422",
"*  c #2B2625",
"=  c #262827",
"-  c #2B2926",
";  c #272E2D",
":  c #2C2D2B",
">  c #332523",
",  c #382723",
"<  c #362B23",
"1  c #3A2C25",
"2  c #332D2C",
"3  c #3C2D29",
"4  c #2D312D",
"5  c #3A3126",
"6  c #33312E",
"7  c #3C332A",
"8  c #2E3532",
"9  c #363431",
"0  c #393634",
"q  c #343934",
"w  c #3C3A35",
"e  c #333C39",
"r  c #3D3D3B",
"t  c #412E27",
"y  c #402F29",
"u  c #43332C",
"i  c #4A372E",
"p  c #433A2E",
"a  c #453B32",
"s  c #4B3F35",
"d  c #413E3B",
"f  c #4E3F38",
"g  c #513C33",
"h  c #35403D",
"j  c #3B423C",
"k  c #4B4236",
"l  c #43423D",
"z  c #4C453B",
"x  c #50463B",
"c  c #5B4739",
"v  c #534A3D",
"b  c #3C4541",
"n  c #3E4944",
"m  c #454443",
"M  c #4A4742",
"N  c #424B46",
"B  c #4B4A44",
"V  c #414D48",
"C  c #4C4C4A",
"Z  c #564C41",
"A  c #594E41",
"S  c #524E4A",
"D  c #46514C",
"F  c #4A544E",
"G  c #545047",
"H  c #5B5246",
"J  c #54544D",
"K  c #5C544A",
"L  c #59594E",
"P  c #4F5752",
"I  c #4F5B53",
"U  c #555552",
"Y  c #525B54",
"T  c #5B5B55",
"R  c #5D5C5B",
"E  c #61564A",
"W  c #665848",
"Q  c #63594D",
"!  c #675F55",
"~  c #5D625C",
"^  c #616255",
"/  c #6C6254",
"(  c #63635C",
")  c #6D665A",
"_  c #66685E",
"`  c #6D6C5D",
"'  c #736758",
"]  c #746B5C",
"[  c #796E5E",
"{  c #74705F",
"}  c #646563",
"|  c #696466",
" . c #666A65",
".. c #6A6C63",
"X. c #676868",
"o. c #6A6C6B",
"O. c #746E62",
"+. c #796F61",
"@. c #6E7265",
"#. c #6F716E",
"$. c #737363",
"%. c #7C7263",
"&. c #7E7A66",
"*. c #71736E",
"=. c #7A776A",
"-. c #75796E",
";. c #7B7B6C",
":. c #737571",
">. c #787470",
",. c #767973",
"<. c #7A7D75",
"1. c #7C7F78",
"2. c #817666",
"3. c #827C64",
"4. c #817668",
"5. c #847B6B",
"6. c #887E6F",
"7. c #837E70",
"8. c #897F70",
"9. c #7D8175",
"0. c #7E8179",
"q. c #8A876E",
"w. c #818476",
"e. c #8C8272",
"r. c #8C8A72",
"t. c #82857B",
"y. c #85897E",
"u. c #898978",
"i. c #8A8C7B",
"p. c #928878",
"a. c #938B7C",
"s. c #87917C",
"d. c #8D917C",
"f. c #93937D",
"g. c #98997E",
"h. c #878B80",
"j. c #8A8E82",
"k. c #908F83",
"l. c #8D9284",
"z. c #929586",
"x. c #9C9382",
"c. c #949A84",
"v. c #9B9985",
"b. c #919688",
"n. c #959A8A",
"m. c #999F8E",
"M. c #A09786",
"N. c #A19887",
"B. c #A59D8C",
"V. c #A29C92",
"C. c #98A086",
"Z. c #9BA18E",
"A. c #9DA391",
"S. c #A5A88C",
"D. c #A2A692",
"F. c #ABA493",
"G. c #A5AB95",
"H. c #A9AD96",
"J. c #A9AF98",
"K. c #B0A997",
"L. c #B3AC9C",
"P. c #ACB195",
"I. c #ACB299",
"U. c #B1B69C",
"Y. c #B6BA99",
"T. c #B4B99E",
"R. c #B5AFA0",
"E. c #BBB5A4",
"W. c #B7BDA0",
"Q. c #BABDA2",
"!. c #C2BDAC",
"~. c #BEC19F",
"^. c #BDC3A4",
"/. c #C1C6A6",
"(. c #C3C9A7",
"). c #C6C1AF",
"_. c #C5CBA9",
"`. c #C9CEAB",
"'. c #CCD2AD",
"]. c #D0D6AF",
"[. c #C9C5B3",
"{. c #CBC7B7",
"}. c #D1CCBC",
"|. c #CFD5B0",
" X c #D0D6B0",
".X c #D3D9B2",
"XX c #D4D0BE",
"oX c #D9D6C5",
"OX c #D2D0C9",
"+X c #DEDBCB",
"@X c #E2DFCF",
"#X c #E6E3D3",
"$X c #E9E7D7",
"%X c #EBE9DA",
"&X c #F3F2E6",
"*X c #F7F6EA",
"=X c #FCFBF0",
/* pixels */
"o.c.(.`.Y.m.7.} 0 d R | >.k.b.k.>.S 2 | D./.`./.H.h.o.X.R 9 * 2 6 d ( | | | | | | | | | | | >.k.b.n.",
"I.^..X.X X/.D.1.R N d o.l.n.m.n.l.} 6 5./.|..X.X_.L.l.,.} U ..i.g.d.j.<.o.o.o.o.o.X.X.o.o.o.,.n.n.V.",
".X.X.X.X.X.XW.b.1.R r ~ t.n.m.m.m.<.G c..X.X.X.X.X/.A.0.o.w.G.'..X`.I.l.>.o.o.,.t.t.h.1.:.o.,.n.m.m.",
".X.X.X.X.X XT.m.n.0.! d M j.m.m.m.c.l.Y..X.X.X.X.X^.A.0.<.U.`..X.X|.'.I.l.,.<.n.U.)._.J.b.,.<.b.m.m.",
"W./.|.|.`.W.G.m.m.y.| r r i.m.v.y.t.h.A.^.|..X|.^.G.h.0.z./..X.X.X.X.XT.n.h.n.T.`..X.X_.U.z.t.t.l.m.",
"n.I.`.|.Q.D.m.m.n.1.~ m J z.D.m.0.o.o.t.A.^.`._.G.h.#.t.D./.'..X.X.X'.U.m.m.I.'..X.X.X.X'.J.h...<.n.",
":.j.G.G.D.m.m.n.9.R l ;.P.^._./.A.t.o.#.0.A.H.D.h.:.o.h.A.G.Q..X.X`.I.D.m.m.I..X.X.X.X.X'.I.-.d R :.",
"o.,.h.h.h.h.h.h.*.C 6 f..X.X].].Q.Z.0.:.:.t.h.h.1.<.<.t.h.n.G.^.^.G.=.@.*.l.G.^.`..X.X`.T.w.J : C o.",
"o.o.:.:.,.:.#.o.| C d g..X.X].].`.T.n.<.o.o.o.,.j.n.n.0.,.l.m.n.c.;.0 - 0 -.n.A.^.'.'.P.s.G 6 - C o.",
"X.h.G.H.H.H.y.} m T d.Y.].].~.q.3.r.j.*.| o.,.h.n.m.m.l.h.1.o.C F l & o * l ..b.G.Z.{ L L ;.9.@.| o.",
"t.D.|..X.X].G.,.B { ~.'..X].`.r.W p.=.) ( :.t.m.m.m.m.m.b.<.T 9 q w w w w 9 C ;.s.9.B l L P._.J.j.#.",
"/.`..X.X.X.X`.Q.c.z.D.f.g.g.S.~.m.=.V.OXV.=.z.m.m.m.m.m.m.b.0.| <.y.y.y.w. .C r T :.w.C.~.'.|.'.J.j.",
".X.X.X.X.X.X.X`.G.n.;.x.V.v.a.4.r.y.` F.+Xm.w.n.n.m.m.m.Z.m.l.h.D.U.W.W.P.l.T 2 T j.I._..X.X.X|.R.b.",
"`. X.X.X.X.X|._.G.n.5.w.u.a.!.L.8.O.H E L.+Xk.7.i.n.n.m.m.m.m.Z.^..X.X|.'.H...6 _ G.`.|..X.X.X|.T.b.",
"J.^..X.X.X.X^.J.A.j.<.} U d E R.[.+.+.4.4.}.E.E / 9.y.Z.m.m.m.A./..X.X.X'.G.o.6 ..H.'..X.X.X.X|.T.b.",
"Z.J.^././.^.J.n.l.<.} S m d z W K.L.4.L.[ x.}.6.F.p.=.t.n.l.j.l.I.^./.^.^.G.-.N *.A.W.`..X.X'.^.J.l.",
"m.Z.A.A.A.A.Z.z.,.| ! a.a.' W [ ] 6.F.[.x.4.!.5.!.$X!.4.w.:.o.:.l.A.A.A.A.m.t.o.t.m.A.W.].].^.G.Z.l.",
"0.h.Z.Z.Z.m.j.<.#.U M Q 5.[ ] a.M.L.oX@X!.5.x.2.!.%X$XR./ | o.o.:.h.n.m.n.h.,.o.,.t.n.G.U.T.I.Z.h.<.",
"X.<.l.y.t.9.o.R R m 2 ^ ] / p.F.).{.{.$X+X!.8.F.}.%X&XL.H ! X.o.X.,.n.A.A.y.,.:.| } <.w.w.t.w.9.-.o.",
"o.o.o.B 9 0 6 : : = - ` [ ! a.M.!.x.5.#X@X!.+X+X$X*X*XoX8.M } X.o.,.n.I._.^.I.l.J : 9 9 9 9 w w U X.",
"X.:.<.*.` ` ^ J U d : _ T a +./ p.p.5.}.B.%.oX%X&X=X*X%XF.0 U o.,.j.I.^.`._.(.I.;.M = : l ^ ] ` ..o.",
"o.0.A.~.`.`.I.Z.b...w M 3 , f ! e.K.x.L.B.p.!.x.}.$X&X$Xw.$ z | y.G.`.`.r.&.~.`.J.<.6 M <.P.`._.n.:.",
"o.l.^.'..X.X`.^.D.y.M > , , , Z e.x.6.W [ v.B.W F.[.E.$X!.E < T y.P.'.P.k 5 g.'.I.9.6 ^ U.`..X]./.D.",
"o.n.'..X.X.X.X`.G.i.w > > t i i 2.6.k $ % i / e.M.2.6.@X#XU.H R y.G.^.S.7 < r.^.c...B w.'..X.X.X.X^.",
"o.n.'..X.X.X.X'.G.t.7 * u g c t %.B.< < 5 5 % / M.8.2.).XXp./ ) -.l.y.H i < q.Z.T l 9.I.|.|..X.X].^.",
"t.G.|..X.X.X.X'.Z.Y o > y t t $ %.J.5 5 a a 7 < / M.B.K.a.u < ] s # $ u u 7 w.c.F w t.G.W.|..X|./.G.",
"m.I.`.'..X.X'./.9.8 O * , g W t +.E./ 5 k v v s 3 / N.K.q.% 5 < # + 1 $ 2 ! ;.t.J l t.n.A.^.`.`.I.z.",
"m.A.I._..X|.^.n.I o O < u g i O ! E.[.] 5 k x s 7 p p.B.p.< 5 x k 5 O # J 9.v K } ! o.h.A.A.H.G.A.m.",
"h.b.A.I.^.^.G.0.e o O > > t c 3 3 6.E.!.' x A x x +.8.6.g.%.u k H v k 6 P ,.K L o.<.1.j.n.j.h.h.y.h.",
"#.0.n.m.m.m.Z.y.e   O # > u i 1 o l 2.B.).T.E.K.6.] ' f Q K.x.7 k v v k N } K a.=.m.Z.Z.m.0.#.o.#.*.",
"h.0.<.<.0.9.Z.A.h = X > , , t $ @ : 6 v ' ' ' ' ! / Z O a a.!.v.p v k < q z 8.F.Q C.^.^.W.n.0.#.<.h.",
"H.n.,.#.#.t.P.`.i.h o O O > 3 $   = ; 4 2 4 2 2 x E > # Q x.e.! p k v d s ] f.) j Z..X.X|.J.l.<.b.J.",
"'.I.b.,.t.T.]..X_.$.4   O > $ u $ & 8 e V P F F 9 # O O E p.M.2.p.x s Z k 7 k 4 V S..X.X'.J.n.n.U.'.",
".X^.m.<.y.`..X.X|.C.V ;   X , , i # : m 0.n.w._ < 3 # # E [ a.F.6.p.% s k k % = @.'..X^.~.A.Z.Z.^..X",
"|.W.n.*.0.^.|..X.X'.s.n : X O * 3 y 1 3 G S 7 $ < #   0 +.2.' 3.F.i.+ < k 5 % + I P.'.~.Z.m.m.Z.T.'.",
"H.A.l.U J Z.^..X.X^.G.9.b : X X O 1 1 1 < 1 u 1 O O 4 9 Z 6.F.L.!.4.4.K < + @ h ~ C.P.A.m.m.m.m.D.U.",
"Z.m.l.M l l.I.^.^.I.Z.n.-.n ;   . X # , > 3 > # X 8 n P e H 5.p.%.H a.5.< % 8 I <.l.n.m.m.m.j.-.@.9.",
"Z.n.h.m l y.Z.A.A.A.m.n.b.:.V 8 = o . .   X O & 8 n ~  .Y V w 6 6 6 w w j n ~ j.0.,.b.m.n.Z.9.h 9 l ",
"Z.l.:.r w #.l.m.Z.Z.A.m.l.0.( D N e : & & & ; n D } o. . . .F b j n n I s.f.G.Z.l.h.0.<.t.J.P.s.=.( ",
"0.:.} q 4 U @.9.0.t.l.l.y.#.| o.X.I D D F D F  .#.:.#.:.:.o.} }  .:.l.P.'..X^.J.A.b.<.<.s.~..X].Q.z.",
"6 C ~ w @ - 4 6 9 N o.*.#.o.X.o.h.j.h.<.o.o.o.:.h.n.b.b.l.#.o.o.0.A.^.|.|..X|.`.I.n.b.H.^.|..X.X'.^.",
"l m B ( $.$.$.$.$.@.| o.o.o.w.m.I.I.Z.h.:.F ~ 0.b.A.I.W.J.j.,.#.l.J.|..X.X.X.X XU.m.m.W..X.X.X.X.X`.",
"R C l g.'.'.'.'.'.G.,.o.o.,.D.|.|.^.G.Z.9.9 U c.A.I.|.|.`.J.j.,.l.J.^..X.X.XXX`.J.n.n.I.|.|..X.X]._.",
"0 S <.Y..X.X.X.X.XQ.l.,.<.H./..X.X|.^.J.w.9 L Z.W._.|..X|._.J.l.b.A.J.^..X.X^.J.j.,.,.l.I.`..X|.^.G.",
"o U m.^..X.X.X|._.U.m.h.j.T.`..X.X|.^.J.9.9 J Z.^..X.X.X.X.X^.A.Z.Z.n.I.^.^.U.l.0.,.,.t.b.U.^.^.J.n.",
"o P m.^.|.|.|.`.J.A.m.n.m.A.W.].|.^.G.A.w.9 L Z.^..X.X.X.X|.^.Z.Z.Z.Z.A.A.Z.l.,.h.n.n.t.,.l.A.A.n.l.",
"o J n.J.R.T.W.I.A.m.m.m.m.m.G.U.U.J.Z.Z.w.9 L n.J.^.|..X|.^.H.A.m.m.Z.n.n.h.0.h.b.m.m.b.h.0.0.1.| G ",
": U l.n.m.m.m.m.m.m.m.m.m.m.m.m.m.m.m.Z.9.9 D 0.b.H._.`.^.A.n.b.n.m.Z.Z.n.1.0.n.m.m.m.m.b.,.} R m 9 ",
"R } :.l.m.m.m.m.m.m.m.m.m.m.n.m.m.m.Z.m.0.9 - l <.Z.D.G.G.Z.h.<.j.Z.m.m.m.b.n.m.m.m.m.m.n.,.U e R t.",
"o.o.o.<.h.h.l.m.m.b.h.h.t.h.h.h.b.m.n.<.~ m r m T _ _ _ ..0.<.o.1.j.n.m.n.h.t.h.b.m.m.m.b.~ D I <.m."
};
