/* XPM */
static char *result[] = {
/* columns rows colors chars-per-pixel */
"50 50 213 2 ",
"   c #1D110F",
".  c #1D1513",
"X  c #1E1816",
"o  c #1F1A18",
"O  c #221714",
"+  c #251A16",
"@  c #281D14",
"#  c #241B1A",
"$  c #2A1D1B",
"%  c #26211A",
"&  c #2E221D",
"*  c #31241E",
"=  c #33291E",
"-  c #252523",
";  c #2D2322",
":  c #262927",
">  c #2C2926",
",  c #262B29",
"<  c #2A2D2B",
"1  c #332522",
"2  c #382722",
"3  c #352A24",
"4  c #3A2B25",
"5  c #342D2B",
"6  c #3C2D29",
"7  c #2C302E",
"8  c #3B3126",
"9  c #33322E",
"0  c #3D342B",
"q  c #3F382F",
"w  c #2E3431",
"e  c #2F3936",
"r  c #353431",
"t  c #3A3433",
"y  c #313A36",
"u  c #3D3A35",
"i  c #333D3A",
"p  c #3D3D3A",
"a  c #402E27",
"s  c #412F29",
"d  c #43342C",
"f  c #4A362E",
"g  c #43392E",
"h  c #4D392F",
"j  c #423731",
"k  c #493731",
"l  c #453C32",
"z  c #4A3E33",
"x  c #413E3B",
"c  c #523D33",
"v  c #36413C",
"b  c #3B433D",
"n  c #4B4236",
"m  c #44423D",
"M  c #4D453A",
"N  c #4F483F",
"B  c #544235",
"V  c #514639",
"C  c #534A3E",
"Z  c #5B4A3D",
"A  c #644F3F",
"S  c #3A4541",
"D  c #3E4944",
"F  c #454443",
"G  c #444A46",
"H  c #424C46",
"J  c #4B4B45",
"K  c #4C4C4A",
"L  c #564D43",
"P  c #5A4F41",
"I  c #544E4E",
"U  c #455049",
"Y  c #4A544C",
"T  c #5C5144",
"R  c #53544C",
"E  c #5E5549",
"W  c #58594D",
"Q  c #4F5A50",
"!  c #555553",
"~  c #555A53",
"^  c #575B56",
"/  c #5B5C54",
"(  c #5B5B5B",
")  c #635445",
"_  c #6A5644",
"`  c #615649",
"'  c #655A4B",
"]  c #695D4E",
"[  c #635D55",
"{  c #6A5E51",
"}  c #5A6356",
"|  c #5D635A",
" . c #646054",
".. c #6C6354",
"X. c #63645C",
"o. c #6B675B",
"O. c #63695E",
"+. c #6C6C5D",
"@. c #716556",
"#. c #706854",
"$. c #726758",
"%. c #756B5C",
"&. c #796D5E",
"*. c #76705E",
"=. c #7B725F",
"-. c #646564",
";. c #696466",
":. c #666A62",
">. c #6A6C64",
",. c #6A6C6B",
"<. c #796F61",
"1. c #6E7065",
"2. c #6D726B",
"3. c #747364",
"4. c #7D7364",
"5. c #7C7A64",
"6. c #71736E",
"7. c #747B6F",
"8. c #7B7B6C",
"9. c #737571",
"0. c #787470",
"q. c #767974",
"w. c #7A7D75",
"e. c #7C7F78",
"r. c #817566",
"t. c #817C64",
"y. c #817768",
"u. c #847A6B",
"i. c #887E6F",
"p. c #877E70",
"a. c #897F70",
"s. c #7C8274",
"d. c #7E8279",
"f. c #8A836E",
"g. c #818475",
"h. c #8C8374",
"j. c #8D8B72",
"k. c #82857B",
"l. c #858A7D",
"z. c #8A8D7C",
"x. c #908677",
"c. c #918877",
"v. c #948B7B",
"b. c #988F7F",
"n. c #8F917A",
"m. c #93957D",
"M. c #98957D",
"N. c #878B80",
"B. c #898E81",
"V. c #908F83",
"C. c #8D9284",
"Z. c #929585",
"A. c #9C9483",
"S. c #969C85",
"D. c #9C9A84",
"F. c #919688",
"G. c #959A8A",
"H. c #999F8E",
"J. c #A09787",
"K. c #A09887",
"L. c #A49B8B",
"P. c #9BA18E",
"I. c #9EA491",
"U. c #A5A78C",
"Y. c #A3A592",
"T. c #ABA493",
"R. c #A5AB94",
"E. c #A9AD96",
"W. c #AEA799",
"Q. c #AAAE98",
"!. c #B0A997",
"~. c #B3AC9B",
"^. c #ACB295",
"/. c #ACB299",
"(. c #B0B393",
"). c #B1B69B",
"_. c #B3BA9D",
"`. c #B9BD9B",
"'. c #B3ACA0",
"]. c #B6B1A1",
"[. c #BAB4A3",
"{. c #BABDA2",
"}. c #BBB9A6",
"|. c #C2BDAB",
" X c #BDC3A3",
".X c #C1C6A5",
"XX c #C4C9A7",
"oX c #C6C0AF",
"OX c #C5CBA9",
"+X c #C9CEAB",
"@X c #CCD2AE",
"#X c #D0D6AF",
"$X c #C7C2B1",
"%X c #C9C4B3",
"&X c #CDC8B6",
"*X c #CFCAB9",
"=X c #D1CDBC",
"-X c #CFD5B0",
";X c #D1D7B0",
":X c #D3D9B2",
">X c #D5D1C1",
",X c #D9D6C5",
"<X c #DBD8C7",
"1X c #DDDACA",
"2X c #E1DECD",
"3X c #E2E0CF",
"4X c #E5E2D2",
"5X c #E9E7D6",
"6X c #EAE8D7",
"7X c #ECEADA",
"8X c #F4F2E4",
"9X c #F9F7EA",
"0X c #FDFDF1",
/* pixels */
",.S..X+X`.H.p.-.t x ( ;.0.B.A.Z.0.I 5 o.Y..X+X.XW.N.,.-.( r : 5 6 x -.;.;.;.-.;.;.;.;.;.;.;.9.V.F.A.",
"/. X:X:X@X.XY.e.( J m ,.B.G.H.G.C.-.r 8.OX-X:X-XOX/.C.q.-.! >.z.m.m.l.w.,.,.,.,.;.,.,.,.,.,.q.F.H.H.",
":X:X:X:X:X;X{.F.e.( x ( k.G.H.H.H.8.R S.:X:X:X:X:XOXI.d.,.d.T.@X:X+XE.g.>.-.;.6.p.l.l.e.9.6.q.G.H.H.",
":X:X:X:X:X-X).H.G.k.( m J B.H.H.H.F.C.).-X:X:X:X:X XI.d.w.).@X+X.X.XU.' c z B g.).OXOXQ.C.q.e.F.H.H.",
"{. X:X:X@X{.R.P.H.N.;.p p N.H.G.l.k.N.I.{.-X:X-X XY.N.k.Z.OX@XM.' ' &.W.C z 5./.OX:X:XOX).F.k.k.F.H.",
"G./.OX+X XI.H.H.F.g.| F R S.I.I.k.,.,.k.I..X+XOXY.N.6.l.Y. Xj.A.>X|.~.%.g.z.Q.@X:X:X:X;X+X^.l.>.e.F.",
"q.B.R.Q.I.P.H.F.e.( m 8.^. XOX XH.k.,.6.d.H.Q.Y.N.9.,.l.H.4.D.1X6X|.4.g.G.H./.f.o...#.$.5.R.7.x ( 9.",
",.q.N.B.B.N.N.k.2.K 9 m.:X:X:X@X{.P.k.6.6.N.N.N.e.e.w.d.o.V.>X5X).4. .>.3...@.V.T.W.~.W.A.o.R > K ,.",
",.,.9.9.9.9.9.,.-.K x m.:X:X:X:X-X XH.e.,.,.2.9.B.G.C.o.h.>X3X'.%.V 0 < n h.A.%X'.D.L.D.h.N 4 < K ,.",
",.k.R.Q.Q.R.l.-.G / n.`.:X:X:X:X:X XH.e.,.,.q.N.C.0.<.P %X4X=Xp.Z @.Z j p.=X>XT.4.' V n M 8.s.1.-.,.",
"d.R.-X;X:X;XR.9.J 3. X@X:X:X:X;X+X{.H.e.,.9.w.p.5.{ V 4.=X=XL.y.i.A.&.u.>X%Xb.' 3.d.N b W ^.XX^.N.9.",
"OX+X;X:X:X;X+X XS.F.R..X:X:X:X@X/.I.G.e.6.k.3.` 4.[.%.&X&X~.4.r.!.b.@.oX|.A.T l ! 3.1.f.U.OX@X@XQ.N.",
":X:X:X:X:X:X:X-XR.H.I./.{.{.{.).R.F.l.9.,.<.p.>X4X=X$.|.~.L.=.i.|.!.r.~.A.' @.Z I o.) ' 4.`.@X;X].F.",
"-X-X:X:X:X:X;X XR.H.F.G.F.B.C.z.N.d.,.;.' x.=X5X7X=X%.~.~.&.i.[.&X=X!.&...y.r.&.P i.[.].(.=.OX;X).F.",
"Q. X-X:X:X:X XQ.I.B.w.9.,.J m m F K -.L i.&X6X7X6X|.%.J.L.%.J.&X<X2X&X[.L.L.c.r.' r.h.' =.`.;X:X).F.",
"H.Q. X X X X/.H.C.w.,.( Y J R W J ~ 9.L @.[.8X9X6X=X~.&.{ J.oX2X6X7X2X=XoX!.L.c.=.' &.^.{.;X-X X/.F.",
"G.I.I.I.I.Y.P.F.q.,.-.m G g.R.{.P.C. .V h.=X8X9X7X2X=X~.}.,X4X5X7X=Xv.&X=X|.!.b.r.) { {.-X;X XI.P.C.",
"d.N.H.P.P.H.N.w.,.^ F / 8./.+X-X.X^.n 4.[.2X8X0X9X7X4X4X5XW.%X7X4X~.' x.|.b.L.b.r.) [ Y.)._./.P.N.s.",
",.q.C.z.k.d.>.( ( F < >.E.@X:X:X@X=.= A.,X5X9X0X0X9X8X7X7Xu.u.|.,X!.' A.T.] &.i.' 4 N g.g.g.g.d.9.,.",
",.,.,.J r r 9 - > > : 1.R.@X:X:X.Xg + &.&X8X0X9X9X7X|.1X2Xy.$.L.|.T.i.~.L.] @.] d # & < u r r u Y ,.",
",.6.e.3.+.o.n = t t 5 >.Y.). X).j.q @ E }.8X8X4X4X=X@.J.%Xx.L.~.L.L.L.T.A.@.r.k 6 6 ; O t [ *.+.>.,.",
",.d.I.{.+X(.> a O J u o.F.P.I.z.8 q z T.4X5X=X|.=X~.] ] W.W.b.u.&.4.c.J.x.i.6 s d 6 4 ; 1 z.XXXXH.6.",
",.C. X-X:X`.1 $ .  .6.W / C.P.z.8 8 U.2X5X1XL.<.~.L.%.v.i.r.M $ & g 4.x.x.<.s * 1 * 1 1 1 t .X#X XY.",
",.F.-X:X:X`.3 1 + X.z.J 9 >.s.q.Z f..X2X1X=XL.P r.L.A.u.d = = = * = j c.A.j h c c k 2 ; ; 4  X:X:X.X",
",.G.@X:X:X_.3 $ f 4 / J - 5 L E t.V T.*X*X|.x.@.J.L.u.g = 8 g 8 = * g _.J.6 f A A k d 2 # 4 `.;X:X{.",
"l.R.-X:X:X`.4 3 d f 4 $ O * ) A.V = d x.~.!.L.J.L.u.g = 0 g g g 8 & n |.L.4 * = 1 d k 6 & @ } {..XR.",
"G./.+X-X:X@Xm.8 1 1 2 2 & + = M a = @ r.T.T.T.L.u.z 8 d n M n g 0 & z |.J.6 s Z c s 1 1 ; X i O.P.F.",
"H.I./.OX.X5.%.o.5 ; 3 3 $ & 4 8 d 3 @ r.T.T.L.u.z a g M T C M n 8 M T.%XJ.4 k _ A c s 1 ; $ - S z.H.",
"N.C.H.U.%.B *.z.b % $ $ & 0 n n g 8 % 5.T.L.b.@.& g M C T C M 0 P Y.>X[.c.* 2 f c c k 6 ; $ . y ^ s.",
"6.k.F.g.g B m.S.Y : + = n T L N g = C c.L.V.x.<.n 8 8 n q 0 8 C A.,X[.L.{ $ 1 d d s 4 6 2 # . 7 v -.",
"N.l.6.+.#.V Z._.} w m M C ' T n d T b.L.y.<.a.i.t.C V T E E E m.&X}.L.4.j O c _ k 1 ; 1 2 $ . , i 2.",
"R.F.X...oXZ P.).Q 0 ..' g T n g T [.!.u.z z &.r.i.M.T.oX$X$X%X%X~.v.u.q < . c c c k 2 ; > #   , v B.",
"+XR.>.] ~.%.D.W v 0 = n T n q E %X%XJ.l 4 2 d @.` ] c.A.A.b.A.M.&.g g < , . ; 1 2 6 6 1 $ $ . < v U.",
":Xz.m ` {.~.] B 7 & n L V n l ).|.J.J.V 1 * 0 @.%.{ B z z z n z j < 7 , - . s c 4 ; 1 1 ;   < i U /.",
"@Xs.v b ' D.c.*.0 n T C n 0 8 n @.A.b.y.l $ 1 6 ] n 7 7 7 7 7 < , 7 , , . $ ; s 6 ; $ ; # X e F Z.OX",
"^.7.v y r V d 8 V C C n 0 P Y.` v.L.v.u.j O $ $ > u v i v v v i i e 7 , O s s ; 1 1 1 O . , D e.P.).",
"P.C.O.y < = 0 n C C n 8 ` T.h.T.T.b.u.] 3 O * 6 a 5 >.6.9.s.k.| S i w # s 2 s 6 ; & # X , i D ;.1.s.",
"H.H.2.e % 8 n n V n d & ..]...T.A.h.] $.C & + 1 = # 5 t >.C.G.l.G - # $ c 6 1 1 ; O O : i D | p 9 m ",
"P.q.Y e % = = g n q * @ ] |.v.4.@.@.4.h.] 4 o # 1 2 1 # r m m z < @ 4 a a 6 $ ; O O : e D s.R.m.8.X.",
"s.:.D i = % % = 8 = L n E oX|.c.h.r.b.4.M 9 , # 1 2 s 2 1 O & $ $ a f f $ 2 $ O O , i D >._.:X:X XZ.",
"r J W v v , % % & M L.m.] b.|.|.|.L.4.M 9 y i , X O ; 6 f 2 d 4 2 d $ 2 $ # o o , e D s. X@X:X:X@X X",
"S F J } D w % % % f.E.K.%.C x.v.c.4.M 9 v b b i < X ; 2 $ 4 6 1 1 3 # # O X X , i H 2.{.;X:X:X:X:XOX",
"( K b M._.} S e 8 g n g 0 9 d g g g v H O.r H H i < o X ; 1 % # $ $ O . . , w D Y 2.F./.@X:X:X:X@XOX",
"r I s._.#X_.} D Y b v e 7 7 7 7 9 H Y d.s.r W w.U i y < O . . .     o < w H U k.d.9.q.F./.OX:X;X XE.",
"# R P. X:X-X X X).O.D D S S D D Y R.^.R.s.r Q S.G.Y D v 7 , , , < 7 e i Y P.P.N.d.q.q.d.C.). X XE.G.",
"# ! P. X-X-X:X@X/.C.N.d.l.B.P._._. XR.P.g.r W P. X_.R.Q v v v v v v S U k.H.B.q.N.G.G.l.q.F.I.I.H.N.",
"o R F./.).).)./.I.P.H.H.G.P.R._.).Q.H.H.s.r W P.^. X@X_.R.P.C.d.d.d.d.l.G.N.d.N.F.P.P.C.l.d.d.s.>.R ",
"< ~ C.G.H.H.P.H.H.H.P.P.P.P.P.P.H.H.H.H.g.r J d.F.R.XX+X XR.G.F.P.H.H.P.F.e.d.G.H.H.H.P.F.q.-.( F r ",
"( -.9.C.I.G.H.H.H.H.H.H.H.H.H.H.H.H.H.H.d.r : m q.P.R.R.Y.I.N.w.B.P.P.P.G.F.G.P.P.H.H.H.F.q.^ i ( d.",
",.,.,.e.N.N.C.H.H.F.N.N.N.k.k.N.G.H.G.w.| F p F / :.o.O.>.d.e.,.d.B.G.G.G.B.k.l.F.P.H.H.C.-.K Q q.H."
};
