/* XPM */
static char *result[] = {
/* columns rows colors chars-per-pixel */
"50 50 110 2 ",
"   c #272B26",
".  c #2B2F29",
"X  c #2D322C",
"o  c #31352F",
"O  c #2E3C32",
"+  c #333631",
"@  c #353B34",
"#  c #393D37",
"$  c #3A3E38",
"%  c #2F4236",
"&  c #314237",
"*  c #344539",
"=  c #3D423B",
"-  c #354A3D",
";  c #384C3F",
":  c #42453E",
">  c #364F41",
",  c #3B4E41",
"<  c #375243",
"1  c #3B5343",
"2  c #3D5947",
"3  c #3E5C4B",
"4  c #3D634E",
"5  c #3F6450",
"6  c #434741",
"7  c #464A43",
"8  c #4A4D46",
"9  c #4C4F49",
"0  c #4C5047",
"q  c #405749",
"w  c #4D524A",
"e  c #415D4A",
"r  c #52554C",
"t  c #525A4F",
"y  c #595B4F",
"u  c #555951",
"i  c #5C5E54",
"p  c #44634C",
"a  c #4A654F",
"s  c #416551",
"d  c #426B55",
"f  c #4A6C53",
"g  c #566153",
"h  c #5C6156",
"j  c #5E6259",
"k  c #4C7257",
"l  c #46735B",
"z  c #49765D",
"x  c #4C785D",
"c  c #636255",
"v  c #63665C",
"b  c #64685C",
"n  c #6B6A5C",
"m  c #72705F",
"M  c #477E62",
"N  c #4A7A60",
"B  c #507F61",
"V  c #666960",
"C  c #6A6D62",
"Z  c #706F60",
"A  c #6D7265",
"S  c #6F736A",
"D  c #737364",
"F  c #797665",
"G  c #7A7867",
"H  c #73766B",
"J  c #76796D",
"K  c #7B7B6D",
"L  c #777B70",
"P  c #7D7E71",
"I  c #817E6C",
"U  c #817F70",
"Y  c #478064",
"T  c #4A8365",
"R  c #4A8668",
"E  c #4D8969",
"W  c #528465",
"Q  c #548867",
"!  c #548768",
"~  c #538C6A",
"^  c #588D6A",
"/  c #57906C",
"(  c #5C946E",
")  c #60976F",
"_  c #7D8173",
"`  c #629971",
"'  c #84816E",
"]  c #89846F",
"[  c #858372",
"{  c #8A8672",
"}  c #8D8975",
"|  c #8C8B79",
" . c #928C76",
".. c #928E7A",
"X. c #95917D",
"o. c #9B937C",
"O. c #A0977D",
"+. c #A2987F",
"@. c #979480",
"#. c #9A9682",
"$. c #9D9985",
"%. c #A39C84",
"&. c #A99F84",
"*. c #A29E89",
"=. c #ABA186",
"-. c #A6A08A",
";. c #ABA289",
":. c #B0A487",
">. c #B1A68B",
",. c #B5A98C",
/* pixels */
"R R R R R R R R R R R R R R R R R R R R R R R R R E ~ ~ E E R R R R R R R R R R R R R R R R R R R R ",
"R R R R R R R R R R R R R R R R R R R R R R R R E / ) ^ ^ ~ E R R R R R R R R R R R R R R R R R R R ",
"R R R R R R R R R R R R R R R R R R ~ / ~ E ~ ( p 2 p T ^ ) ( ~ R R R R R R R R R R R R R R R R R R ",
"R R R R R R R R R R R R R R R R ~ ( ( 1 2 ( ( e j A h 3 ^ T W ( ( ~ R R R R R R R R R R R R R R R R ",
"R R R R R R R R R R R R R R R ~ W z 2 C V 3 2 v H J H h 2 l - ; N M T R R R R R R R R R R R R R R R ",
"R R R R R R R R R R R R R R E W 2 = A H H i $ C P L S u # # C D , = 2 T R E E R R E E R R R R R R R ",
"R R R R R R R R R R R R R R M e v P H S H D J ;.,.;.J 8 v K H H P _ h 3 T ) ) ~ E ( ` ~ R R R R R R ",
"R R R R R R R R R R R R T 5 e h J S S H @.,.,.&.*.*...[ I #...H S L | i a f k ^ ` ` ` ` ~ E R R R R ",
"R R R R R R R R R R R T 3 u g v S S S L ;.*.*.*.*.#.J [ >.*.;.@.K %.%.| $ t u , k ! ~ ( ( R R R R R ",
"R R R R R R R R R R R < V [ _ O.{ S H L $.*.*.*.$.[ P &.*.*.*.{ J ....L 7 A H C w p N Q ) / R R R R ",
"R R R R R R R E ( f * X D P &.*.$.P #.U [ *.*.*.$.J L } %.*.{ &.#.J J @.J %.%.L S 7 d ( ` / R R R R ",
"R R R R R R E ( x u J v u C U $.$.P $.*.[ $.$.$.I [ %.K | } J $.#.J X.*.P @.&.X.h + z ( ( E R R R R ",
"R R R R R R R B = L P &.&.c i [ U H #.#.+.{  .U U >.*.&.J %.} @.| [ >.[ H D X.K 6 = 5 T R R R R R R ",
"R R R R R R T e u K &.*.*.&.P H U | ....o.,. .{ >.*.*.*.%.} O. .{ [ #.P [ G D H V S u 5 T R R R R R ",
"R R R R R R M & J U $.*.*.*.@.S ] o.o.o.;.#...o.%.*.&.#. .o.I &.*.} ..o.;.;...S S S _ * M R R R R R ",
"R R R R R T > 6 h S K [ $.$.} ..} &.&.%.[ ..&.&.{ U I  .&. .%.*.%.X.o.,.*.*.$.S S S _ * M R R R R R ",
"R R R R T T O 7 , 9 V H I } O...&.*.*.$.' &.*.*.&.[ =.+.o.{ %.%.#.K  .%.$.$.[ J C r 9 + Y R R R R R ",
"R R R R R T O = j i S L &.&.] { *.%.} U ' ..#.%. .&.*.;.X.O.*.$...I ' I .. .;.>.=...K & Y E R R R R ",
"R R R R R T O 6 S J _ &.&.*.o.' #.{ &.,.,.o.K [ =.*.%.@.[ } X.{ ..,.,.| J &.*.*.*.>.J $ 5 E R R R R ",
"R R R R R T O = j I %.*.$.X. . .I @.*.*.%...X.*.*.%... . .I  .;.*.*.*.*._ $.*.*.*.*.u # O R R R R R ",
"R R R R R T O $ r V U | } O.:.>.&. .$.*.@.{ ;.*.$...%.>.:.%.o.%.*.*.*.*.P $.*.*.*.*.I 8 = 4 R R R R ",
"R R R R R T O # i P V S o. .*.*.&.I @.%.I [ *.} [ %.-.*.*.;.&.{ $.*.*.*.P [ *.*.*.*.;. .7 % R R R R ",
"R R R R R ! # 6 7 r v o.;.%.I [ [ +.} } :.o.U O.=.;.*.*.*.%. .+.} *.*.*.%.P [ $.*.*.*.#.8 * / R R R ",
"R R R R T - # i } &.=. .#.#.] :.;. .&.:.&.;.o.X.*.*.*.$.#.[ %.;.&.} #.} { %.[ [ $.$.*...= * / R R R ",
"R R R R R % , P &.*.*.:.......*.| %.-.*.-.-.;.o.X.o.X.X.{ ] X.%.*.O.I &.:.;.&.P D | X.n # - / R R R ",
"R R R R 5 % $ C K #.*.*.;.{ :.*.{ @.*.*.$.$.-.;.] { ] } ,.,.[ $.%...%.;.*.*.-.&.P H D : + - ~ R R R ",
"R R R R > + : i H K } $.%.K } X.#...$.*.-.*.$.-.' &.%.{ *.*.o.X.@.{ ;.*.*.*.*.*.@.H S t # % R R R R ",
"R R R R > @ $ i %.{ H U X.Z %.o.} o.| $.*.*.*.*.[ $.%.X.X.*.;.+.{ o.o.*.*.*.*.*.[ r V u # % R R R R ",
"R R R R * + 6 ..;.;.&.n G +.o.o.=.;.=.} %.-.$.| %.*.*.;.X.' #. .%. .X.I [ #.$.o.H t 7 $ O z R R R R ",
"R R R R < + : J #.#. .r h X...;.-.-.-.o.[ $.$.| o.*.*.*.;.:.{ &.;.O.o.:.&.} U J S P u # & ^ R R R R ",
"R R R R T % + $ D J K [ | } -.-.*.-.#.} ]  .} &.] X.#.o.$.$.} o.%.} { o. .:.O.J U P u # O ~ ~ R R R ",
"R R R R R @ o @ h J &.,.,.=.} $.$.o. .:.,.o. .o.} } { }  .} ;.'  .} } } +...K @.,.[ r # O / R R R R ",
"R R R R R O X + w [ *.*.*.*.%.[ @.} X.%.$.[ D [ ;.>.>.;...&.X.} X.;.>.>.[ [ ..;.*.$.i @ + R R R R R ",
"R R R R R %   X @ A *.*.*.$.[ J X.%.%.{  .+.&.%.%.*.*...}  .K #.*.*.X.| o.{ } *.X.J 7 o O R R R R R ",
"R R R R R d X X o n %.*.$.[ H A [ *.$.[ ;.-.;.*.-.$.$.X.K O.{ #.*.o.X.=.} [ J ' J v # . O R R R R R ",
"R R R R E M O   X 8 | #.K L D i | $.[ &.&.*.*.*.*.-.#.} >.;.&. .X...=.%.v | =.o.C u +   % R R R R R ",
"R R R R R ( k X . + u n 8 n =.{ H U J @.*.*.*.*.*.$.X.} *.*.*.+.[ ;.$.[ r o.%.[ 8 : o & z R R R R R ",
"R R R R T ( B &   o # # r O.;.| P &.} [ @.*.*.*.$.@.I &.*.*.#.{ ' K  .K 0 | } i = @ o l ( R R R R R ",
"R R R R R ( ` T & . @ # 6 n I b } *.;.$.[ } @.*.| J C D #.X.D &.-.[ +.[ w y y : # X ; W ( R R R R R ",
"R R R R R E ) ( l * . # # 6 u 9 C #...&...i I [ P #.o.I D b 8 K K K ;.X.w : @ o X . d ( ) R R R R R ",
"R R R R R ^ ( W N l * o o + = 6 r D y F m 6 u J +.-.-.-.J w = r r i I r # # X . - s z ! ( R R R R R ",
"R R R R R ( ! N N z > .   X # # $ 7 = : : : 7  .-.*.*.*.Z 9 $ 7 9 7 : # o X X + 1 N N ^ ( R R R R R ",
"R R R R R ( ) N N N l @   X . + # # # # # # $ i ..#.X.| h , + # $ # + X   X - l N B ( ( E R R R R R ",
"R R R R R / ( W N N N > O X . o + . X + + . # # g b A C N N > o + + X .   - N E ^ ` ( E R R R R R R ",
"R R R R R R ( ) ~ ! ! ! N , X . . X - 1 , , 2 q 2 4 z M N N z 1 - . & , 1 z ! ) ( ~ E R R R R R R R ",
"R R R R R R ~ ` ) ` ) ( ~ z 3 3 3 2 l N ~ ^ ^ M x x N ^ B N N ! z e d N N ^ ( ~ R R R R R R R R R R ",
"R R R R R R R ~ ` ( E E ~ ^ N N Q ( ^ ( ( ~ ( ( ^ N N ^ ( ( ( ) ^ N N N ^ ( ~ R R R R R R R R R R R ",
"R R R R R R R R E E R R E ( ( ( ) ~ E E E R E ~ ( ( ( N T ( ~ E ! ( ( ) ( E R R R R R R R R R R R R ",
"R R R R R R R R R R R R R E ( ( / R R R R R R R E E ( ( ( E R R R ~ ( ( ~ R R R R R R R R R R R R R ",
"R R R R R R R R R R R R R E R R R R R R R R R R R R R R R R R R R R R R R R R R R R R R R R R R R R "
};
