/* XPM */
static char *result[] = {
/* columns rows colors chars-per-pixel */
"50 50 202 2 ",
"   c #36221C",
".  c #1C223F",
"X  c #272B26",
"o  c #282C27",
"O  c #2B2F29",
"+  c #3A2B27",
"@  c #2D322C",
"#  c #31352F",
"$  c #3B322A",
"%  c #332D33",
"&  c #2E3C32",
"*  c #333631",
"=  c #353B34",
"-  c #393D37",
";  c #3A3E38",
":  c #442A1C",
">  c #58311D",
",  c #4A2C25",
"<  c #502D27",
"1  c #47342A",
"2  c #5C3420",
"3  c #5C332C",
"4  c #483C33",
"5  c #643730",
"6  c #673830",
"7  c #6A3A30",
"8  c #763F30",
"9  c #2F4236",
"0  c #314237",
"q  c #344539",
"w  c #3D423B",
"e  c #354A3D",
"r  c #384C3F",
"t  c #5A482D",
"y  c #42453E",
"u  c #4A443A",
"i  c #564838",
"p  c #7A4526",
"a  c #70422A",
"s  c #7C442D",
"d  c #7A562D",
"f  c #6C4B32",
"g  c #68593C",
"h  c #775334",
"j  c #7A6C3F",
"k  c #343C5B",
"l  c #364F41",
"z  c #3B4E41",
"x  c #375243",
"c  c #3B5343",
"v  c #3D5947",
"b  c #3E5C4B",
"n  c #3D634E",
"m  c #3F6450",
"M  c #304C6E",
"N  c #434741",
"B  c #464A43",
"V  c #4A4D46",
"C  c #4C4F49",
"Z  c #584D42",
"A  c #435648",
"S  c #4D524A",
"D  c #415D4A",
"F  c #53554C",
"G  c #585649",
"H  c #5B5A4E",
"J  c #555951",
"K  c #5C5E54",
"L  c #635A47",
"P  c #635B4C",
"I  c #6A5D4A",
"U  c #47644E",
"Y  c #456952",
"T  c #426B55",
"R  c #566153",
"E  c #5B6156",
"W  c #5E6259",
"Q  c #46735B",
"!  c #4C755A",
"~  c #49765D",
"^  c #507558",
"/  c #646154",
"(  c #6B6655",
")  c #63665C",
"_  c #6A6558",
"`  c #64685C",
"'  c #6C6A5C",
"]  c #776A56",
"[  c #726E5E",
"{  c #77735A",
"}  c #5B6260",
"|  c #477E62",
" . c #4A7A60",
".. c #5E7762",
"X. c #507F61",
"o. c #666960",
"O. c #6A6D62",
"+. c #706F60",
"@. c #6D7265",
"#. c #6F736A",
"$. c #737264",
"%. c #7A7666",
"&. c #7A7867",
"*. c #73766B",
"=. c #76796C",
"-. c #7B7B6D",
";. c #777B70",
":. c #7D7E71",
">. c #854C2C",
",. c #8C4B2D",
"<. c #865127",
"1. c #94582C",
"2. c #8D5930",
"3. c #9B5930",
"4. c #A45E2F",
"5. c #86682D",
"6. c #89613C",
"7. c #AB652E",
"8. c #B56A2F",
"9. c #AC722E",
"0. c #AB6332",
"q. c #BB6C34",
"w. c #A97533",
"e. c #BD7833",
"r. c #C1792F",
"t. c #C27432",
"y. c #CC7F34",
"u. c #817D5E",
"i. c #967753",
"p. c #857B65",
"a. c #827E6C",
"s. c #817F70",
"d. c #478064",
"f. c #4A8365",
"g. c #4A8668",
"h. c #4D8969",
"j. c #528465",
"k. c #548867",
"l. c #538C6A",
"z. c #588D6A",
"x. c #57906C",
"c. c #5C946E",
"v. c #60976F",
"b. c #7D8173",
"n. c #629971",
"m. c #95813C",
"M. c #A8883E",
"N. c #C98635",
"B. c #D58639",
"V. c #C69239",
"C. c #D59535",
"Z. c #EBAB3B",
"A. c #EFB63A",
"S. c #F7C33B",
"D. c #908650",
"F. c #9E9556",
"G. c #B7924D",
"H. c #B4A659",
"J. c #84816E",
"K. c #89846F",
"L. c #848372",
"P. c #8A8673",
"I. c #8D8975",
"U. c #8C8A79",
"Y. c #928C76",
"T. c #928E7A",
"R. c #95917D",
"E. c #9B937C",
"W. c #A0967D",
"Q. c #A1987F",
"!. c #CA974A",
"~. c #C8A449",
"^. c #C6B55D",
"/. c #EBBF4F",
"(. c #E9B652",
"). c #D2BF63",
"_. c #E4C15A",
"`. c #F3CB51",
"'. c #EAD16D",
"]. c #284987",
"[. c #336AA6",
"{. c #2A79BC",
"}. c #4E6F95",
"|. c #297FC4",
" X c #2788CD",
".X c #2888CD",
"XX c #3593CB",
"oX c #3AA9D9",
"OX c #6FEAE6",
"+X c #979480",
"@X c #9A9682",
"#X c #9D9984",
"$X c #A39C84",
"%X c #A99F84",
"&X c #A29E89",
"*X c #8CA796",
"=X c #ABA186",
"-X c #A6A08A",
";X c #ABA389",
":X c #B1A68A",
">X c #B5A98C",
",X c #85C7B7",
/* pixels */
"g.g.g.g.g.g.g.g.g.g.g.g.g.g.g.g.g.g.g.g.g.g.g.g.g.g.l.h.l.g.g.g.g.g.g.g.g.g.g.g.g.g.g.g.g.g.g.g.g.g.",
"g.g.g.g.g.g.g.g.g.g.g.g.g.g.g.g.g.g.g.g.g.g.g.g.l.x.v.z.z.l.h.g.g.g.g.g.g.g.g.g.g.g.g.g.g.g.g.g.g.g.",
"g.g.g.g.g.g.g.g.g.g.g.g.g.g.g.g.g.g.l.x.l.g.l.x.U v n ~ z.v.c.x.g.g.g.g.g.g.g.g.g.g.g.g.g.g.g.g.g.g.",
"g.g.g.g.g.g.g.g.g.g.g.g.g.g.g.g.l.c.c.c v c.c.U W @.E U z.j.f.c.v.l.g.g.g.g.g.g.g.g.g.g.g.g.g.g.g.g.",
"g.g.g.g.g.g.g.g.g.g.g.g.g.g.g.l.j.~ A O.o.b v W *.*.*.E v Q r r  .| f.g.g.g.g.g.g.g.g.g.g.g.g.g.g.g.",
"g.g.g.g.g.g.g.g.g.g.g.g.g.g.h.j.v w O.*.*.K ; $.b.-.#.J - = O.@.r w b | g.h.g.g.g.g.h.g.g.g.g.g.g.g.",
"g.g.g.g.g.g.g.g.g.g.g.g.g.g.| D ) b.*.#.*.$.=.-X>X;X%.V W -.=.*.b.b.W D g.v.c.l.h.v.n.l.g.g.g.g.g.g.",
"g.g.g.g.g.g.g.g.g.g.g.g.f.n D W =.#.#.*.+X>X>X-X&X&XR.b.J.E.R.*.#.;.P./ U Y ! c.n.n.n.n.l.g.g.g.g.g.",
"g.g.g.g.g.g.g.g.g.g.g.f.b J R ` *.#.*.;.-X&X&X&X&X@X*.P.;X-X;X+X;.$X#XU.w F J l Q z.z.c.c.g.g.g.g.g.",
"g.g.g.g.g.g.g.g.g.g.g.x o.L.b.E.P.#.#.=.#X&X&X&X#XL.:.%X-X&X#XP.&.T.T.;.B #.*.O.S m ~ j.c.x.g.g.g.g.",
"g.g.g.g.g.g.g.h.c.T q @ @.:.%X%X#X=.J.$.L.&X&X&X#X=.=.I.#X&XU.%X#X*.=.E.&.$X$X=.@.y T c.n.c.g.g.g.g.",
"g.g.g.g.g.g.h.c.^ J =.) K o.a.$XF D.F.H.F.P L.#XJ.L.$X-.U.I.=.#X@X*.E.&X;.@X&XE.W = ~ c.c.h.g.g.g.g.",
"g.g.g.g.g.g.g.X.w ;.-.%X%X_ G 4 ~.`.S.S.S./.D.i $.=X-X$X-.$XY.T.U.P.;XP.@.*.R.-.y w Y d.g.g.g.g.g.g.",
"g.g.g.g.g.g.f.D J :.$X-X&X%XL y.w.<.9.N.Z.7.V.!.d u.[ -X$XU.W.Y.P.b.@X;.L.%.%.$.` *.J n g.g.g.g.g.g.",
"g.g.g.g.g.g.| 0 =.-.#X&X&X#X6.3.7 , [ G f 3.(.i.'.(.M.I I.W.a.%X%XU.R.E.-X;XT.#.#.#.b.q ~ g.g.g.g.g.",
"g.g.g.g.g.f.l N W *.-.L.#X+X2.s 7 i =XQ.&.E h '.V.0.q.1.p f ( &X&XR.E.:X-X&X#X#.#.*.b.q d.g.g.g.g.g.",
"g.g.g.g.g.f.& N z C o.*.a.a.>.8 6 H $X@Xs.%Xf (.t.Z.!.  G.<.a P.E.-.Y.&X#X@XJ.=.O.F S & d.g.g.g.g.g.",
"g.g.g.g.g.f.& y ) K #.=.%X%Xd >.7 4 P.J.a.Y.G 1.0.$ ) [.[.M w.t I.a.J.a.R.Y.:X;X=XT.=.- d.g.g.g.g.g.",
"g.g.g.g.g.f.& N #.*.:.%X%X&XI 4.6 + Y.>X>XE.&.$ 4.. ].{. X.X*XM.u :X>XU.-.=X&X&X-X;X=.- T g.g.g.g.g.",
"g.g.g.g.g.f.& w } a.&X-X#XT.G p 7 5 / &X$XT.@XI 8.% ].|. X.XoXb p %.&X&Xb.@X&X&X&X&XK - & g.g.g.g.g.",
"g.g.g.g.g.f.& - F o.s.U.Y.E.Q.s 8 6 , +X+XP.-X&.9.'.b.[. XoXOX,XN.K.-X&Xb.#X#X-X&X&XJ.V w n g.g.g.g.",
"g.g.g.g.g.f.& - K :.O.O.E.Y.$X1 ,.7 3 B s.L.&X&.: y.$ k {.|.XX}.D.+X%X&Xb.L.#X-X&X&X-XY.B 9 g.g.g.g.",
"g.g.g.g.g.j.= N B G ) R.-X$Xa.%.> 8 6 4 %XW.s.W.u.2 e.).M ].}.k > P &X&X&X-.J.#X&X-X#X#XV q l.g.g.g.",
"g.g.g.g.g.e - K I.%X:XY.@X@XP.:Xt ,.6 , ' =XE.R.%XL <.V., + i.'.t.5.%.I.I.$Xb.P.@X#X-XU.w e x.g.g.g.",
"g.g.g.g.g.9 w b.%X&X&X:XY.T.Y.&X+.> s 7 + P.:XT.R.T.[ t 1.e.N.B.e._.` =X:X-X-X-.*.I.+X' - e x.g.g.g.",
"g.g.g.g.m 9 w @.-.@X&X&X=XP.:X&XP.Z p 7 5 + @X:XJ.P.K.I.( 3.e.N.`.G.%.-X#X-X-X-X-.*.@.y * e l.g.g.g.",
"g.g.g.g.l * w W #.a.I.#X#X-.I.T.$XU.1 >.6 3 4 &XJ.=X$XL.#Xi e.V.w.!.] &X-X&X&X-X+X*.#.J = 9 g.g.g.g.",
"g.g.g.g.e = ; J $XI.*.a.+X+.$XE.P.W.a., ,.6 < / J.#X&XE.R.@X' 5.Z.C.j &X&X&X&X&XL.J o.J - 9 g.g.g.g.",
"g.g.g.g.e * N R.&X=X%XO.&.W.#XE.=X=X%X+.> >.5 , 4 +X&X=XR.J.R.i t.r.j p.L.#X$X@X*.J B w = ~ g.g.g.g.",
"g.g.g.g.x * w %.#X#XY.F K T.Y.=X%X&X&X$XV p 7 6 3 u &X&X;X:XP.L B.A.m.Y.%XI.s.=.@.;.F - 0 l.g.g.g.g.",
"g.g.g.g.f.9 * w +.&.:.s.U.Y.%X&X&X&X@XP.P.1 s s 6 < 1 &.#X#XI./ N.S.^.P.Y.=XW.*.s.:.J - & l.l.g.g.g.",
"g.g.g.g.g.0 # * W =.$X>X>X:XY.@X&XE.Y.:X>XY.( > s 7 6 1 u [ E.u C.S.H.a.Q.T.=.E.>XP.F - & x.g.g.g.g.",
"g.g.g.g.g.9 @ # F b.-X-X#X&X#XL.R.I.E.#X#XL.&.G a ,.7 7 5 3 ,   Z.`.L ;XL.P.U.;X-X@XK * = g.g.g.g.g.",
"g.g.g.g.g.9 X @ * $.&X&X-X#XL.=.R.&X$XP.I.Q.Q.#XI.1 4.,.8 7 6 >.`.D.$.J.E.P.U.&XR.=.V # & g.g.g.g.g.",
"g.g.g.g.g.T @ @ # _ -X&X#Xb.*.#.P.-X#XL.=X-X-X-X#XR.( h 4.0.q.N.g [ E.=XI.L.-.J.=.) = O & g.g.g.g.g.",
"g.g.g.g.g.~ 9 X @ V I.@X-.-.@.E L.@XP.%X-X-X-X&X-X-XE.K.p.] i.i K.Y.=X$X` U.=XR.O.J * o 9 g.g.g.g.g.",
"g.g.g.g.g.c.! @ @ * K ' V ( :XI.*.J.=.+X&X&X&X&X#X&XT.U.-X#X-XQ.K.-X#XP.F E.-XJ.V y # 0 ~ g.g.g.g.g.",
"g.g.g.g.g.c. .0 X @ - - F Q.-XU.;.%XY.L.+X&X&X&X#XR.J.%X#X-XR.I.J.b.I.b.S P.I.W y * # Q c.g.g.g.g.g.",
"g.g.g.g.g.c.v.X.0 o * - N _ J.` U.&X;X#XL.U.#X&XU.=.O.$.#X+X@.-X-XP.$XP.S H G w * # r j.c.g.g.g.g.g.",
"g.g.g.g.g.h.n.c.Q e @ - - y J C O.@XT.%XY.K -.L.;.#XW.p.#.' V &.&.-.-XI.F w - @ # o T c.c.g.g.g.g.g.",
"g.g.g.g.g.x.c.X.~ Q e @ @ * w N F $.H %.$.y F =.Q.-X-X-X%.F k F F K p.F - - # O r Y Q j.c.g.g.g.g.g.",
"g.g.g.g.g.c.k. .| ~ x @ o @ = - ; V ; y y y V I.-X&X&X-X{ y 4 B C B y - @ # O * c ~  .c.c.h.g.g.g.g.",
"g.g.g.g.g.c.v. . . .Q = o O @ * - - - ; = - - / T.E.R.U.R z * - - - * # o O e Q  .f.c.c.h.g.g.g.g.g.",
"g.g.g.g.g.x.v.f. .~  .l & @ O * # @ O * * @ - - R ` @... . .l # = * @ O o e  .f.z.n.c.h.g.g.g.g.g.g.",
"g.g.g.g.g.h.v.v.k.l.k.j. .l @ @ o O e c c l v A b U ~ |  . . .c e @ 0 z l Q z.v.c.x.h.g.g.g.g.f.g.g.",
"g.g.g.g.g.g.l.n.n.n.n.z.k.~ b b b b Q  .z.l.z. .~ ~  .l.j. . .j.Q b T  . .z.v.l.g.g.g.g.g.g.g.g.g.g.",
"g.g.g.g.g.g.g.l.n.c.l.g.l.z. . .k.c.z.c.c.l.c.c.z. . .z.v.x.c.v.z. . . .l.v.h.g.g.g.g.g.g.g.g.g.g.g.",
"g.g.g.g.g.g.g.g.h.h.g.g.g.c.v.c.v.l.h.h.h.g.g.l.v.c.c. .j.z.l.h.j.c.v.c.v.h.g.g.g.g.g.g.g.g.g.g.g.g.",
"g.g.g.g.g.g.g.g.g.g.g.g.g.l.c.v.l.g.g.g.g.g.g.g.g.h.v.c.c.h.g.g.g.l.v.v.h.g.g.g.g.g.g.g.g.g.g.g.g.g.",
"g.g.g.g.g.g.g.g.g.g.g.g.g.g.g.g.g.g.g.g.g.g.g.g.g.g.g.g.g.g.g.g.g.g.g.g.g.g.g.g.g.g.g.g.g.g.g.g.g.g."
};
