/* XPM */
static char *result[] = {
/* columns rows colors chars-per-pixel */
"50 50 207 2 ",
"   c #1C110F",
".  c #1D1412",
"X  c #1E1816",
"o  c #221613",
"O  c #241A16",
"+  c #291E16",
"@  c #231C1B",
"#  c #2B1E1B",
"$  c #2B2117",
"%  c #23211E",
"&  c #2D221C",
"*  c #31241E",
"=  c #33291E",
"-  c #252423",
";  c #2D2323",
":  c #262827",
">  c #2A2A26",
",  c #272C2A",
"<  c #2B2D2C",
"1  c #332523",
"2  c #382723",
"3  c #352A23",
"4  c #3B2C25",
"5  c #342C2B",
"6  c #3D2D29",
"7  c #2C312E",
"8  c #3B3126",
"9  c #34312D",
"0  c #3D342B",
"q  c #3E382E",
"w  c #2D3532",
"e  c #2F3836",
"r  c #353532",
"t  c #3A3633",
"y  c #313A36",
"u  c #3B3A35",
"i  c #333E3A",
"p  c #3C3C3A",
"a  c #412F29",
"s  c #43332B",
"d  c #49352E",
"f  c #42392E",
"g  c #4A3B2F",
"h  c #453D33",
"j  c #4B3B33",
"k  c #423D3B",
"l  c #513C32",
"z  c #35413D",
"x  c #39433E",
"c  c #4B4136",
"v  c #43423D",
"b  c #4D453A",
"n  c #524337",
"m  c #53473A",
"M  c #5A4438",
"N  c #544A3D",
"B  c #5B4B3C",
"V  c #614D3D",
"C  c #3B4541",
"Z  c #3E4843",
"A  c #454542",
"S  c #434D47",
"D  c #4B4942",
"F  c #454E49",
"G  c #4C4B4A",
"H  c #564D42",
"J  c #5A4E42",
"K  c #524E4C",
"L  c #46514A",
"P  c #4B544D",
"I  c #5C5244",
"U  c #53534D",
"Y  c #5B564B",
"T  c #5A594D",
"R  c #4D5650",
"E  c #555452",
"W  c #595651",
"Q  c #535D54",
"!  c #5A5A55",
"~  c #5C5C5B",
"^  c #635344",
"/  c #645749",
"(  c #645A4C",
")  c #695D4E",
"_  c #695E51",
"`  c #645D58",
"'  c #5A6359",
"]  c #5E635C",
"[  c #6C6254",
"{  c #646659",
"}  c #63645C",
"|  c #6B665A",
" . c #6D6D5D",
".. c #706556",
"X. c #726759",
"o. c #746A5B",
"O. c #766C5B",
"+. c #75725F",
"@. c #646563",
"#. c #696466",
"$. c #666964",
"%. c #6A6C63",
"&. c #6A6B6B",
"*. c #756D60",
"=. c #7A6F61",
"-. c #6B7365",
";. c #6B7467",
":. c #747363",
">. c #7C7263",
",. c #7C7B67",
"<. c #73746D",
"1. c #7F7769",
"2. c #747A6D",
"3. c #7B7B6C",
"4. c #747671",
"5. c #767973",
"6. c #7A7974",
"7. c #7A7C74",
"8. c #807565",
"9. c #837D64",
"0. c #817768",
"q. c #847A6B",
"w. c #897E6E",
"e. c #897F70",
"r. c #7C836F",
"t. c #7D8075",
"y. c #7E8279",
"u. c #87836B",
"i. c #838475",
"p. c #8C8374",
"a. c #8D8B76",
"s. c #82857B",
"d. c #858A7D",
"f. c #888C7D",
"g. c #918978",
"h. c #948B7B",
"j. c #8D937D",
"k. c #94957C",
"l. c #9A977E",
"z. c #878B80",
"x. c #8A8E81",
"c. c #908F83",
"v. c #8D9284",
"b. c #929585",
"n. c #9C9483",
"m. c #959B84",
"M. c #9A9D85",
"N. c #919688",
"B. c #959A8A",
"V. c #999F8E",
"C. c #A09986",
"Z. c #A49C8B",
"A. c #99A187",
"S. c #9CA18C",
"D. c #9DA390",
"F. c #A2A58B",
"G. c #A8A08F",
"H. c #A6A98B",
"J. c #A2A692",
"K. c #ABA493",
"L. c #A5AA95",
"P. c #A9AD96",
"I. c #ABAD98",
"U. c #B3AC9B",
"Y. c #ABB193",
"T. c #ADB299",
"R. c #B2B59D",
"E. c #B7B99B",
"W. c #B4B99E",
"Q. c #B7B1A1",
"!. c #BAB4A4",
"~. c #B7BCA0",
"^. c #BBBCA3",
"/. c #BEB9A8",
"(. c #C2BCAB",
"). c #BEC29F",
"_. c #BDC3A4",
"`. c #C1C6A6",
"'. c #C3C9A7",
"]. c #C5C0AF",
"[. c #C5CBA9",
"{. c #C9CEAA",
"}. c #CCD2AD",
"|. c #D0D6AF",
" X c #C6C1B1",
".X c #CAC5B4",
"XX c #CDC8B7",
"oX c #CECAB9",
"OX c #D2CEBD",
"+X c #CFD5B0",
"@X c #D0D6B0",
"#X c #D3D9B2",
"$X c #D4D0BF",
"%X c #D5D2C1",
"&X c #DAD7C5",
"*X c #DEDBCB",
"=X c #E1DECE",
"-X c #E1DFD2",
";X c #E6E3D3",
":X c #E9E6D6",
">X c #EAE8D7",
",X c #ECEBDB",
"<X c #F0EFE0",
"1X c #F5F4E6",
"2X c #F7F7E9",
"3X c #FAF9EC",
"4X c #FEFDF1",
/* pixels */
"&.m.'.{.E.V.e.~ t k ~ #.4.c.b.c.6.K 6 #.J.`.{.'.K.x.&.#.~ r > 5 5 k #.#.$.#.#.#.#.#.#.#.#.#.4.c.B.b.",
"T._.#X#X+X`.J.s.~ A v &.x.B.V.V.x.} 9 r.'.}.#X|.[.T.x.5.@.E %.f.k.j.f.7.&.&.&.&.&.&.&.#.&.&.6.B.V.V.",
"#X#X#X#X#X+X~.N.y.~ p ~ s.B.V.V.S.3.U l.#X#X#X#X#X`.D.y.&.i.L.+X#X{.T.v.4.&.&.5.7.z.z.7.4.&.6.B.V.V.",
"#X#X#X#X+X+X~.V.B.y.~ v D x.V.V.V.b.v.W.#X#X#X#X#X`.D.y.6.R.{.#X#X#X}.T.c.5.7.B.Q.[.[.I.N.5.6.N.V.V.",
"_._.@X#X}.~.L.D.S.y.] u x d.A.l.z.y.z.J.^.+X#X#X_.D.z.y.b.`.#X#X#X#X#XW.B.z.B.W.{.#X#X[.T.N.s.s.c.V.",
"N.T.{.}._.D.S.x.] L C k c r.k.a.y.&.&.s.D.~.Y.k.J.z.4.z.J.`.}.#X#X|.}.R.V.V.T.}.#X#X#X@X+XT.x.$.7.B.",
"5.z.D.T.d.r.N.4.x z c / u.k.n n  .5.$.! D q & 1 D @.&.z.D.L._.+X#X{.T.J.V.V.T.+X#X#X#X#X}.I.5.x ~ 4.",
"&.5.z.s.' Z L C i r 1./.K.1.c B n :.W o o & # a t $.7.y.z.B.P._._.L.3.;.<.v.L._.}.#X#X{.W.i.U > G &.",
"&.&.5.$.x 7 = , 7 b M.R.[ r.l.'.l.:.t 4 3 * . O Y B.N.s.5.v.B.B.m.3.t > t 2.B.J.).|.{.T.j.U 9 < G &.",
"&.s.S.Q z % $ = & n l...l.).#X#XE.,.1 a d 6 K <.x.V.V.b.z.7.&.U U v - @ - A %.m.L.S.+.T Y ,.i.;.#.&.",
"y.D.S.Z 7 % $ f h = 0.^ c -.j.-.F # # a a k s.V.V.V.V.V.N.7.! r y u u u t 9 G 6.f.r.D v T P.[.L.z.4.",
"_._.$.w $ $ & q b 8 N c 9 z z w @ & 1 3 3 7.B.V.V.V.V.V.V.B.7.@.7.d.d.d.s.$.G p Q 5.s.A.E.}.+X{.I.z.",
"#XA.x r $ = q c m N b 8 = 8 b c O # 3 6 O <.S.V.V.V.V.V.V.V.v.z.L.~.~.~.P.v.~ 5 ! x.T.'.#X#X#X@X~.v.",
"}.Y.x 7 $ $ 8 g b N N I c 8 I [ 0 $ # 1 o T V.V.V.V.V.V.V.V.V.D._.#X+X@X}.L.-.5 $.L.{.#X#X#X#X@XR.N.",
"Y.T.Q q m ( & 3 0 h b m H N N q I h = # + b v.V.V.V.B.V.V.V.V.D._.#X#X#X}.P.;.9 -.L.{.#X#X#X#X@XW.N.",
"S.y.L z ..~.k.8 $ = 8 c b N H H ( I h 8 * 1.[ w.3.Y T d.2.z.z.x.T._.'._.~.L.5.A <.D.^.{.@X#X+X_.L.N.",
"B.;.z i m U.8.= f ( 3.8 f s h m H I b f 3 +.+.O.g + f 8 $ h c Y 6.q.V.D.D.V.s.&.y.V.D.~.}.+X_.L.S.v.",
"y.5.x w 0 >.[ p.Q.Q.Z.G.N q / 2 h b c f s = f I p./ f + = H o.N m ..o.3.b.d.5.&.5.s.B.L.W.W.T.S.x.7.",
"&.<.L w < h 8.(.(.=.>.n.c [ (.c.c q 8 8 3 = 4 p. XOXn.o.o.oX.XK.e.!.I.p.{ >.5.4.@.@.7.i.i.s.i.i.<.&.",
"&.&.R e < m Z..Xg.e.U.K.8.[ Q.%XU.o.0 $ + = c U.*X:X;X$XoX>X*X*X=X;X;X%XK.) a.v.E < r t r t r u E &.",
"&.4.$.i 7 f g.(.g...h.Z.Z.C.h.K.I.Z.g.J *.h.Z.(.$X&X:X>X2X3X2X1X3X2X,X,X;Xp.0.g.2.D > < A ` o. .%.&.",
"&.y.v.L 7 0 +.U.G./ q.e.n.h.h.w._ g.Z.G.K.K.K.U.(.OX X%X,X2X4X4X1X<X>X>X,X&Xn.^ M.3.9 A 2.T.{.'.B.<.",
"&.v._.2.S t B e.n.w.X...=.w.>.1 * j X.n.Z.K.K.K.g.q...n.&X<X4X3X<X-X%X(.U.p...M | { 9 { T.{.#X#X`.J.",
"&.B.}.[.F.x p n X.e.e.X.m D 0 2 s s =.p.g.C.Z.K.q._ X./.OX:X3X1X>X&X!.X.o.h.(.n.>.p.c ,.{.#X#X#X#X_.",
"&.m.}.#X_.2.L y t m _ J O   # # # c 8.p.0.[ 1.n.Z.C.g.K.E.U.XX2X;X.Xg.g.(.(.(.&X=X=X!.>.l.E.#X#X#X_.",
"s.L.+X#X#X}.F.-.y w 8 ; O # # 3 _ X.8.p.N $ f J w.C.G.q.) / K.<X>X&X=.w.Z.n.K.E..X*X;X*X!.9.k.'.`.L.",
"V.T.}.+X#X#X|.Y.S i , O # 4 # j o.^ 8.>.0 f f 8 s ) p.g.e.=.XX;X;X=X!.g._ ..w.O.h.K.!.=X:X-X_ C.T.N.",
"V.D.T.'.#X#X_.y.S e @ O * d # H [ _ 8.u.= c c h 4 = q [ g.Q.!.Z.q.C.;X.XU.K.0.8.w./ J p.].-Xe.o.D.B.",
"z.v.D.T._._.D.Q y : O 4 & $ 9 r j / C.Z.f b I b c 0 3 $ *.Z.g..._ .X>X=X$X.X(.U.Z.g.^ I :.n.K.1.| t.",
"4.s.N.V.A.S.2.C w @ O 6 & H t.i 7 c n. X[ 8 H I b g f = j [ K.U.n.=X,X,X:X=XoXU.w.p.( 1.f.*.| G.N ` ",
"z.s.y.7.t.4.R z : @ # a 3 h m.Z 7 0 0.(.h.= b N b c f 8 = 4 p.K.(.&X*X=X>X=X.Xq.8.8...H.E.m.<.H s ( ",
"D.N.7.&.&.2.Z z @ # 4 4 # v 7.F w 8 / U.R.q f c c q s 3 * # X.C.U.C.8.q.$XOXn.g..X(.I.>.C.V.v.{ m B ",
"+XW.N.5.y.S.R z % O 4 d # 3.} y y 7 m Z.].O.N 4 f q 8 = * 4 o.n.n.X.^ Z.oX.Xh...Z.(.$XXXu.| V.b.S.u.",
"#X_.V.5.d.2.z , X & 1 4 o Y ` < i 7 f p.(..XU.p.q = $ $ # B g.C.K.(.n.(.oX(.C.8.^ w.G.OXQ.o.,.b._.#X",
"+X~.B.4.t.f.z , . & 6 a * 0 ! r z w 5 K >.U..X$X/.| m :.h.e.g.n.Z.Z.C.Z.].U.Z.u.X./ O.p..XoX_ w.W.}.",
"L.D.v.R Q f.Z 7 X o 1 0 2 & v e z e < < n n.K.!.XX X(.].(.Z.e.e.q./ ^ =.U.K.h.8...^ n.+.*.(.p.{ J.T.",
"D.V.v.A v f.' w @   # ; 4 # O > i w , 7 5 H 8.C.G.U.Z.p.[ j I *./ q._ h.C.g.q...Y >.N.V.[ c.(.m %.t.",
"V.V.v.A v f.;.e : . # 2 s a 2 O 7 , , , 7 < t l ( H 6 * # a d # 4 m ` q.q.q.O.) =.[ <.V.3.[ %X^ 0 v ",
"V.x.4.p u 4.5.x 7 X O # # 4 j # O # X @ : % o o o & d d 4 V l * d 6 2 6 _ ^ m q.E.p.H 7.3.^  X1.{ { ",
"y.4.@.y 5 E $.L i : o o # 4 a d l 4 ; o o . a l 6 4 V V 3 M V 6 1 a 1 # B O.g.>.=.Q.N <.d.i.p.w.W.b.",
"5 G ] t @ > w i i y : . o # # 6 a 1 d ; d 2 d ^ l a ^ J 4 d l 6 # 6 & 9._.+X+XL._ K.*.F.'.+X).R.}._.",
"C A G { :.:.-.$.] Z w - X O 1 1 ; 6 6 1 d a a l a l l d 6 j a 1 1 1 h Y.#X#X#X{.Z.| i.~.+X#X#X#X#X}.",
"~ G v M.}.}.}.}.{.m.R e %   O # ; 2 1 1 a 1 a d 2 a j a # s 6 1 5 # +.}.#X#X+X{.I.v.N.T.}.#X#X#X}.'.",
"r K 3.W.#X#X#X#X#X~.<.C w - X O # # ; 1 1 ; 1 6 1 2 s 4 1 2 & O O t V._.#X#X[.I.v.5.5.v.T.[.#X|._.P.",
"% U V._.#X#X#X+X_.T.V.5.S e 7 % X X # 1 # 1 1 ; 1 1 2 ; # O X 1 D :.B.R._._.T.v.y.5.5.y.v.T.`._.P.B.",
"@ E V._.+X#X+X}.T.D.V.N.&.R z e , - X o # 1 1 # 1 1 # ; @ : C f.V.V.B.D.D.D.v.5.z.B.B.z.5.b.D.D.B.x.",
"@ U B.T.W.T.W.T.D.D.V.V.B.z.;.Z z e , @ . # @ # # @     % C 5.V.V.V.D.V.B.z.y.z.N.V.V.v.z.y.y.7.$.U ",
"< ! x.B.V.V.V.V.V.D.S.S.S.S.V.z.@.Z i w : @ @ X   X @ 5 C Q d.N.B.V.V.V.B.7.y.B.V.V.V.D.N.5.@.~ A t ",
"~ @.4.v.V.B.V.V.V.V.V.V.V.V.B.V.N.s.' Z i i e 7 : 7 w i 4.V.x.5.x.D.V.V.V.B.N.V.B.V.V.V.B.6.E u ~ i.",
"&.&.&.7.z.z.v.V.V.N.z.z.s.z.z.z.N.V.N.] P Z C i i i C S ] y.7.&.7.z.B.D.B.z.z.z.N.V.V.V.N.~ G E 7.V."
};
