/* XPM */
static char *result[] = {
/* columns rows colors chars-per-pixel */
"50 50 209 2 ",
"   c #1B110F",
".  c #1D1412",
"X  c #1F1A18",
"o  c #221614",
"O  c #251A16",
"+  c #291E15",
"@  c #231D1B",
"#  c #2A1D1B",
"$  c #2B2016",
"%  c #23211E",
"&  c #2E221C",
"*  c #32251D",
"=  c #33291E",
"-  c #252524",
";  c #2C2423",
":  c #262927",
">  c #2B2926",
",  c #272B2A",
"<  c #2B2D2B",
"1  c #332523",
"2  c #362B23",
"3  c #3A2B25",
"4  c #342C2A",
"5  c #3C2D29",
"6  c #2C312D",
"7  c #3B3126",
"8  c #35322D",
"9  c #3D332B",
"0  c #3B382F",
"q  c #2D3432",
"w  c #2F3936",
"e  c #343532",
"r  c #3B3533",
"t  c #323A36",
"y  c #3C3B34",
"u  c #333D39",
"i  c #3C3C39",
"p  c #402E27",
"a  c #412F29",
"s  c #42332B",
"d  c #4A362E",
"f  c #42392E",
"g  c #493C2F",
"h  c #483730",
"j  c #443B31",
"k  c #4B3C32",
"l  c #423E3B",
"z  c #523D33",
"x  c #36413D",
"c  c #39433F",
"v  c #4B4135",
"b  c #43423D",
"n  c #4D4439",
"m  c #51463B",
"M  c #544A3D",
"N  c #5B4B3D",
"B  c #634E3E",
"V  c #3B4541",
"C  c #3F4A44",
"Z  c #454443",
"A  c #464844",
"S  c #424C45",
"D  c #4B4A45",
"F  c #4C4C4A",
"G  c #554D42",
"H  c #594E42",
"J  c #544E4E",
"K  c #47514A",
"L  c #4B554D",
"P  c #4E584F",
"I  c #545047",
"U  c #5C5245",
"Y  c #53534C",
"T  c #5D564A",
"R  c #5C594C",
"E  c #4F5951",
"W  c #555452",
"Q  c #585752",
"!  c #5C5B54",
"~  c #5B5C5B",
"^  c #635444",
"/  c #625649",
"(  c #645A4C",
")  c #695D4E",
"_  c #645D52",
"`  c #695F55",
"'  c #596457",
"]  c #5C625B",
"[  c #646154",
"{  c #6C6254",
"}  c #63635C",
"|  c #6C665B",
" . c #6E6C5C",
".. c #716556",
"X. c #736759",
"o. c #756B5C",
"O. c #776C5C",
"+. c #7A725E",
"@. c #656564",
"#. c #696466",
"$. c #656D63",
"%. c #6B6B64",
"&. c #6A6C6B",
"*. c #756F62",
"=. c #796F61",
"-. c #6A7065",
";. c #6E716D",
":. c #737363",
">. c #7C7364",
",. c #7B7866",
"<. c #71736D",
"1. c #737A6D",
"2. c #7B7C6C",
"3. c #737571",
"4. c #787470",
"5. c #767973",
"6. c #7A7D75",
"7. c #7C7F78",
"8. c #817667",
"9. c #827D66",
"0. c #817769",
"q. c #847A6B",
"w. c #887E6E",
"e. c #897F70",
"r. c #7C8274",
"t. c #7E8179",
"y. c #88826D",
"u. c #828375",
"i. c #8D8374",
"p. c #828976",
"a. c #8B8B75",
"s. c #82857C",
"d. c #85897E",
"f. c #8B8C7B",
"g. c #918777",
"h. c #938A79",
"j. c #948B7B",
"k. c #8C917B",
"l. c #93947D",
"z. c #95987E",
"x. c #878B80",
"c. c #8A8E81",
"v. c #908F83",
"b. c #8D9284",
"n. c #929686",
"m. c #9C9382",
"M. c #949A85",
"N. c #919688",
"B. c #959A8A",
"V. c #999F8E",
"C. c #A19887",
"Z. c #A49C8B",
"A. c #A59E90",
"S. c #99A187",
"D. c #9BA18E",
"F. c #9EA491",
"G. c #A4A588",
"H. c #A8A08E",
"J. c #A2A692",
"K. c #ABA493",
"L. c #A5AB94",
"P. c #A9AD96",
"I. c #ADA698",
"U. c #AAAE98",
"Y. c #B0A897",
"T. c #B3AD9C",
"R. c #ABB093",
"E. c #ACB29A",
"W. c #B4B796",
"Q. c #B1B59C",
"!. c #B4BA9D",
"~. c #B7B1A1",
"^. c #BCB6A4",
"/. c #B7BCA0",
"(. c #BABDA2",
"). c #BEB9A8",
"_. c #C3BDAB",
"`. c #C4BFB0",
"'. c #BFC29F",
"]. c #BDC3A4",
"[. c #C1C6A6",
"{. c #C4C9A6",
"}. c #C6C0AF",
"|. c #C5CBA9",
" X c #C9CEAB",
".X c #CCD2AD",
"XX c #D0D6AF",
"oX c #CAC5B4",
"OX c #CBC7B5",
"+X c #CECAB9",
"@X c #D2CEBD",
"#X c #CFD5B0",
"$X c #D1D7B0",
"%X c #D3D9B2",
"&X c #D5D1BF",
"*X c #D6D2C2",
"=X c #D9D6C5",
"-X c #DDDACA",
";X c #E1DECE",
":X c #E5E3D3",
">X c #E9E6D6",
",X c #EAE7D7",
"<X c #EAE7D8",
"1X c #ECEADA",
"2X c #F4F3E4",
"3X c #F7F6E8",
"4X c #F8F7E9",
"5X c #FAFAED",
"6X c #FEFDF1",
/* pixels */
"&.M.{. X!.V.e.} r l ~ #.4.c.B.v.4.J 4 | J.[.|.[.I.d.;.#.~ q > 4 4 l #.#.#.#.#.#.#.#.#.#.#.#.4.v.N.B.",
"E.].$X%XXX[.J.t.~ A Z &.v.B.V.B.c.@.e q.|.#X%X%X|.E.b.5.@.W %.f.l.l.f.6.&.&.&.&.#.&.&.&.&.&.5.B.V.V.",
"%X%X%X%X%X$X/.N.t.~ i _ s.B.V.V.D.6.I M.%X%X%X%X%X[.F.t.&.u.L.XX%X|.R.n.5.&.&.5.7.x.s.7.5.&.5.B.V.V.",
"%X%X%X%X%X#X~.V.N.7.@.l A c.V.V.V.n.b.!.%X%X%X#X%X[.D.t.6.Q. X$X%X$X.XQ.c.5.7.N.Q.|.|.E.b.5.7.N.B.V.",
"/.].$X%X X].L.D.V.x.#.i i x.D.B.d.s.x.F.]..X%X#X].L.d.s.n.[.%X%X%X%X%X!.B.d.n.B.!.%X%X|.Q.M.s.s.v.V.",
"B.E. X X].F.D.B.N.r.] A Y M.F.D.t.&.&.s.F.[..X|.L.s.Q ;.V.[.#X%XXX XG.G.,.( :.S P 1.[.XX XP.d.$.7.B.",
"5.c.L.U.F.D.V.N.t.~ b 2.R.[.|.].D.s.&.;.t.F.P.J.%.j # # 9 _ l.{.W.9.v M Z.g.) n u C S.].r.M.1.b ~ 3.",
"&.5.x.c.c.x.x.s.;.F 8 l.%X%X%X#X(.D.t.3.3.s.x.x.@.9 5 # & . # a.9.v k f >.Z._.o.r u c L C ' Y < F &.",
"&.&.3.3.3.3.;.&.@.F i M.%X%X%X%X#X].V.7.&.&.;.5.c.I # . * 2 4 h [ [ r 1 9 U T.m.v 6 : $ 6 x 8 6 F &.",
"&.s.L.U.P.L.x.@.A ! k.!.%X%X%X%X#X].V.t.&.&.5.x.N.n.u.! s h 5 & y b - @ , n ..l.v $ 7 $ & x K -.#.&.",
"s.L.#X%X%X%XL.5.D :.'..X%X%X%X#X X/.V.7.&.;.x.B.D.V.V.N.n d 5 & @ w t e u 0 ) O.$ v 0 $ % 6 c r.x.3.",
"]. X#X%X%X%X X].M.n.L.{.%X%X%X.XQ.F.V.t.;.c.B.B.V.V.D.V.t.4 1 1 + % t x t 6 v n 7 n v $ + + q $.F.x.",
"%X%X%X%X%X%X%X XL.D.F.U.]./.!.!.F.N.x.;.3.M.B.F.V.V.D.V.:.O 5 1 $ $ n v 7 = 9 M M m v 7 & $ q x d.n.",
"#X#X%X%X%X%X%X].L.B.N.N.N.c.b.b.b.t.;.&.3.b.F.B.V.V.V.V.I o 1 # $ 0 { G 9 m U M M v x 7 * $ 6 S D.N.",
"U.].#X%X%X%X].U.F.c.6.5.&.D b b b F @.&.3.n.D.B.V.V.V.b.v + # 2 v U 0 M M M n v v 7 = = o.N 0 ' U.N.",
"D.U.].].].].E.V.b.t.&.~ L A I R F ~ ;.;.&.%.u.T R 2.2.{ >.= 3 v U [ N M M m v 7 $ $ s G.).( y K r.M.",
"B.D.F.F.J.F.D.n.3.&.} Z b a.L.W.2.r.[ n y + 7 f $ k +.O.o.= f m H G n s 9 f f f.X.f 5 +.K.n x x 1.b.",
"t.x.D.D.F.B.c.7.&.~ Z Q 2.P.z.y.) N N ..M = + j / i.U s 2 9 j v n j 2 ` s T I.m.T._.l.{ { 9 6 C 6.6.",
"&.6.b.d.t.t.&.~ ~ Z 4 %.M.+.h.K.T.i.K.oXoX{ X.m.&XoXu.= * 2 7 7 f n m.oX( m j.0.O._._.8.0 6 6 K ;.&.",
"&.&.&.D r e 8 < < : > R ) K.@X<X:X=X-X-X>XOX*X:X>X=XT.v = $ $ 9 *.~.*XT.| w.I.T.q.g.oXZ.n 6 t x W &.",
"&.;.7.:. . .[ Y Y l 4 T g.;X1X1X4X4X2X3X5X3X1X:X=X&X^.Z.j.+.T h.A.Y.A.m.C.A.C.h.) m._.g.s 6 x [ %.&.",
"&.t.F.]. X XQ.S.B.| k m.&X<X<X<X2X3X6X6X3X1X*XoX+X_.T.K.K.K.K.C.i.( q.j.j.j.e.0.( A.Y...9 6 P !.B.3.",
"&.b.].#X%X%X.X!.f.[ n ..h._.}.@X;X1X6X5X1X=Xm...q.h.H.K.K.Z.m.{ j * 1 =.q.O...X.g.j.w.N e L p..X].J.",
"&.N..X$X%X.X'.9.i.{ h.^.i.X.X._.=X,X3X5X1X&X)...) w.K.K.m.h.i.=.h a 1 2 m z X.i.q.) k c C R..XXX%X].",
"&.B..X%X'.G.>.K.;X;X+XOX_.^.h.h.+X:X4X+XQ.^.Y.i.C.H.m.>.{ 0.i.0.n # # # . o M / n 0 u L r.|.%X%X%X].",
"s.L.{.G.0.T.*X,X;X+X^.Y.C.Z.w.8.*X1X1XK./ ) q.H.C.w.N f $ M i.8.X.{ 2 # # + & 4 q w ' d.!. X%X%X[.L.",
"V.E.G.) =X1X:X_.T.C.8.i.X...g.T.;X<X>XOX=.w.h.i.) s 7 0 f 7 +.>./ X.n # 5 & o , w V 6.B.F.]..X|.E.n.",
"V.F.>.0.:X+Xm./ ^ 8.O.+.Z.K.}.:XZ.e.K.^.~.h.{ g = 2 g v v * i.8.( { G & d & # @ q V ] s.F.F.L.L.F.V.",
"t.*.=.A.I.0.T U i.C.Y._.+X&X;X<XoX` ) g.G.O.& = 9 j m H n f H.C./ j r e # # 5 o - w K t.B.b.s.x.d.x.",
"} N I.=.,.u.,.^ g.g.T.@X;X;X<X1X;Xm.T.I...v * 0 j n T U 9 ) }.m.v < u ' r & 5 # X q V 1.D.t.;.;.&.<.",
"_ s U %.5.7.l.O.8.O.8.oX;X:X;X;X=XoXK.g.9 * 7 g j m M n = j.).q.9 < V 6.8 = a # @ : w L D.B.t.&.7.x.",
"U v ( &.&.:.| C.^.OXj.m.&X*Xw.q.Z.T.C.o.$ * 2 0 f v n s s Q.T.) 8 q P c.G # 4 5 # X x K Q.E.b.7.N.P.",
"+.z.c.5._ >._.*XoXI.O.g.oX+XZ.^ ..m.j.O.p 1 1 9 9 f 7 m O._.Z.M 4 w $.D.4.# d 2 # @ w L F.E.B.B.E..X",
".X'.n.%._ K.*XY.g./ O.C._.@X_.j._.K.C.g.H $ + * = 9 u.T.OX_.h.f 6 x t.B.( o 1 1 1 o , u $.F.D.F.].%X",
".X!.u.^ `.@Xm.+./ X.y.Z.Y.oXK.Z.Z.A.m.j.w.j.>.m ) ^.@XOXT.8.I 6 6 c -.b.r * a a 1 . , u 5.D.D.D.!..X",
"P.L.| 0.oXq.+.R...) 8.h.H.T.8.^ ) w.e.e.Z.T._._._.+X_.H.m.M 6 6 w x C } # 1 5 1 o . , C x.D.B.D.L.Q.",
"D.N.H T.A.T P.(.z.) X.q.j.C.j.) 8.( =./ z ` e.Z.Q.A.m.>.M 9 6 , q u - # # 2 * # . X q E B.D.x.1.-.r.",
"D.f./ *X=.| V.a.O.X./ o.q.w.q...H 5 # d a # 1 p G ) m 9 < 6 , , , , # 2 a a 4 # . : w $.B.D.r.c 8 Z ",
"D.1.{ +XH %.c.{ 0.).y.N / { k 5 p d 1 z B 1 p d &   o o % : X . % + & z a # # o . 6 V &.s.P.R.k.,.} ",
"r.<._ *.r J %.M H.i.{ | G k o 1 a 1 p z B 3 N ^ a 5 z d . . O 1 2 z d 2 5 1 o . : x C 3.f.].%X.X].n.",
"e D Q y % > < v I.( _ &.&.@.Z # 5 ; 4 z d 3 N ^ a z ^ z 1 d # h 3 5 5 & @ X   , w V ] L.].#X%X%X.X].",
"l Z D [ :.:.:.| / | @.&.&.&.&.f 1 1 1 a d a h z z p z a p z 3 5 5 ; & 1 @ X - w K 1.c.!.%X%X%X%X%X|.",
"~ F b z..X.X.X|.].P.5.&.&.<.J.y.# 1 1 3 h 1 5 z 5 1 h a 1 1 1 ; 1 1 @ # . X w ' S.N.N.U..X%X%X%X#X|.",
"e W r.Q.%X%X%X%X%X!.b.5.7.P.[.{.G # # # 1 1 3 a 3 1 5 1 1 1 1 & # # O . - w L r.c.5.5.N.E.|.%X%X].L.",
"@ Y V.].%X%X%X#X|.Q.V.d.c.!. X$XB.R 7 o o # # 4 1 ; 1 1 1 # 1 & o @ @ < u C B.c.s.5.5.s.N.E.].].E.B.",
"@ W V.].#X%X#X.XP.F.V.B.V.J.!.$X#X].n.S - @ 1 # ; 1 # 1 ; # O . @ < w x L &.b.5.d.B.B.s.5.N.F.F.B.c.",
"@ Y B.P.!.E./.E.F.F.V.V.V.V.L.!.Q.U.V.5.Z - .   O # # O # . X , q V C &.s.d.t.d.N.V.V.b.s.t.t.t.$.I ",
"< Q b.B.V.V.V.B.F.B.V.V.V.V.V.V.V.V.V.c.W t q @ . . o @ X , w u C ] x.B.B.7.t.B.D.V.D.D.B.5.@.~ Z r ",
"~ #.3.b.V.B.V.V.V.V.V.V.V.V.V.V.V.V.V.V.r.u u w 6 , < w x x V L 3.N.B.D.B.N.N.D.V.V.V.V.N.5.W u ~ s.",
"&.&.&.7.x.x.b.V.V.N.x.x.s.x.x.x.N.V.B.6.~ Z V c u t u V L &.] &.t.x.B.D.B.b.d.d.N.V.D.V.N.] F E 6.V."
};
