/* XPM */
static char *result[] = {
/* columns rows colors chars-per-pixel */
"50 50 90 1 ",
"  c #211D1D",
". c #262222",
"X c #2A2625",
"o c #2C2827",
"O c #2E2B2B",
"+ c #322D2C",
"@ c #33312E",
"# c #363431",
"$ c #393635",
"% c #3C3A36",
"& c #3E3C3B",
"* c #413E3C",
"= c #43423D",
"- c #454442",
"; c #484642",
": c #4B4A45",
"> c #4D4C4A",
", c #544E4E",
"< c #53534D",
"1 c #59584D",
"2 c #545452",
"3 c #575851",
"4 c #5B5B55",
"5 c #5C5C5B",
"6 c #645E5E",
"7 c #5F6057",
"8 c #5F605A",
"9 c #616255",
"0 c #63645D",
"q c #6B675E",
"w c #66685E",
"e c #6E6E5D",
"r c #646463",
"t c #696466",
"y c #666861",
"u c #6A6C64",
"i c #6B6C6B",
"p c #6E7064",
"a c #6F716E",
"s c #737363",
"d c #787967",
"f c #71736E",
"g c #76796E",
"h c #7A7C6D",
"j c #737571",
"k c #787470",
"l c #767874",
"z c #7A7D75",
"x c #7C7F78",
"c c #7D8175",
"v c #7E8179",
"b c #818476",
"n c #878974",
"m c #82857B",
"M c #85897E",
"N c #8A8E7D",
"B c #8D917C",
"V c #91947D",
"C c #95987E",
"Z c #878B80",
"A c #8A8E82",
"S c #908F83",
"D c #8D9284",
"F c #919586",
"G c #949985",
"H c #919688",
"J c #959B8B",
"K c #999F8E",
"L c #9BA18E",
"P c #9DA391",
"I c #A1A692",
"U c #A5AB95",
"Y c #A8AE96",
"T c #A9AF98",
"R c #ACB195",
"E c #ACB299",
"W c #B1B69C",
"Q c #B4B99E",
"! c #B9BE9D",
"~ c #B7BDA0",
"^ c #B9BEA1",
"/ c #BDC3A4",
"( c #C1C6A6",
") c #C3C8A7",
"_ c #C5CBA9",
"` c #C9CEAB",
"' c #CCD2AE",
"] c #CFD5B0",
"[ c #D0D6B0",
"{ c #D3D9B2",
/* pixels */
"iG)`!Kc6$*5tkAGSk,+qI(`)USit5#X+@=wtrttttrttttjSFH",
"E/[{](Ib5-*iDKKJDr@h)[{])ESlr2uBCCNziiiiiiiiiilJKK",
"{{{{{[QJv5&8bJKKKh<C{{{{{)LvavU'{/EDjialxZmxjaxJKK",
"{{{{{[QKJv5=:AKKKFFQ{[{[[)LvzW`[{{'EDjzHW_)EDlzHKK",
"^)[{`^UKLZt&&ZLJNbZI^]{[(UZvS({{{{{!JZJQ_{{_WHbmSK",
"JT`'^IKKHv8;<GPLviimP('_UZamI)[{{{'QLLE'{{{{'TMivF",
"jAUUUKKJc4=cR/_/KmiavKUIZaiZKU^[{/EPJLE]{{{{'Th*5j",
"ilZZZZZmf:+V{{{'^IxjaZAZvlxmAKU^/UcpfDY/`{{`Qm<o-i",
"iijjkkfir,&C{{{{]/KxiiajAJJZjAJJGc#o#cGP/'`WB<@O,i",
"imUUYUMr-4B!{{{{]/KviilZJKKSZxu,<=. .=uHRLs11ccpti",
"vU[{{{Yk:s!'{{{[`~KviamKKKKKHx5##%%%##>cnc:=1R/EZj",
")`{{{{`^GFU({{{'WPJxjAJKKKKKJHxrcAvvcu>%3gnC!_]`TA",
"{{{{{{[`YKPE~~~QPHmjjDKKKKKKKPDZU/W/ED8O7DT/{{{{~D",
"'[[{{{[)UJHHHDDBDvaijHKLKKKKKKJP/{[[`Uu@yP'{{{{{~D",
"T/[{{[/YPDzji:===2rijHKKKPKKKKKP/{{{'Yp@uT'{{{[{~H",
"KT/(((TKDxi5>:<1:3jaamHKKKKKJDADW////Pg-fP/`[[]/UD",
"JLPPPPLDlir=:bY!LHHviavJJJJJHlajAPPPPLmimLPQ{[/ULD",
"vZLLLLAci3-3hW_'/EPDvajvvvvvxiiilmJLJMlilmKPWWTLZc",
"icDNvvp55-OpU`{{{/PLDaaxvxjiiiiiilJPPAvjryvvcMncji",
"iii:##@OOXopY'{]{/PKHjD//EHxiitiilJQ//ED2O##$##%<i",
"iavpee7<2*opI!///ELAAH~]{`QJliiilAE/{{_Ec-XO=7eeui",
"ivP/''RLHi%uDLLLPPKmm/]]{]]WDliiZU`]{{{'Yc@-hW`)Ja",
"iD/`{[`/PNf37DLJLKJDK_{{{{{~KAxjAT'{{{{]Wc@7W`{[/P",
"iJ'[{[['YLF:@uvDADAHP/`{{]/TKKZaAP/'{{'/Vu:n'{{{{/",
"iJ'{{{{'UJD>X@<fjaaZLP~]]/UPLLZaAKP/]{/P7=cT]]{{{/",
"MP][{{['YDv5<dCLPc>uvLPW~WPLHvlilMJPQQTH:%NU/'{]/Y",
"LE`]{[]/UZajD_{{{L=>iAJLKHZMvaiiijHKLLJA<=vJP/'_WH",
"LPT_{]/YLMjL([{{{!v>&uvLKz-%=5iiilHLLLAlr8aZLPTPPL",
"ZHPW//TJDzaP/]{{{/L<o-5uu4=:7mGDmZJHZZvilvvZJDmZNM",
"avHJLLLJvjaDE`]''!B<oOO++*rvP/'_TLKmaaiaZLLPJvaaaa",
"ZvzzvvP/WLDHPEEEEB37pupu30MU/]{{_~PDvjaDT////JvivZ",
"TJlaavE]{/TPLLNchw:gKKLKvvJ/{{{{{_PLHlvL/{{]'TDcHU",
"`WHlv/'{{]`TLL8@@<cHKKLKJJK/]{{{{/UKHlxK/]{{]UKJW'",
"{/JzM`{{{[]WLJ7o:fJKKKKKKKKU/]{]/WPKHllK/{{//PKP/{",
"`/Jac/[{{['ELJ7@fJKKKKKKKKKKU/]/TKKKDjlH//]/PKKP^'",
"TPD33L/[{/TPLL7@cKKKKKKKKKKKKTTUPKKZjaalHUEPJKKKPW",
"LLD:=NE//ELKLL7OyDKKKKKKKJAZAJKJDZZvxxxxvDJKKKZapc",
"LJA-=NLPPLKLJH7O5vHJKKKKJAaicDJDxajZJKKJvvDHJPc=#=",
"LDj&%fDLLLLLHvr<ravDKKLJMciiicvvaaMP//EKDMvvvYTNg8",
"vjr#O2icvMDDMiiiajjMDDDDvjajairiamP/]{/EPHccA/{]/J",
"#:8%.o+#@>iaaiiiZHDvffflZJHHDaiiZP/{{{{/TKHU/]{{'/",
"=->9psppppiiiivLEELAf<8vHPWQTDlaAE]{{{{]EKK/{{{{{'",
"5>=C'']''PliigP'[/ULv#7GPE'[_TZlAT/{{{{`TJHE]{{{'/",
"$>cQ{{{{[/DlzY){{[/Tv#<J/_{{{/TDJPE/{{/TDllDE/{]/U",
" <L/{{{]/WKZD!`]{'/Tc@<L/{{{{{/PKKKE//EDvvvvHE//TJ",
" 2L/]]]`ELLHJP~][/ULc@3L/[[{[]/PKKKPPLHlMHHMvDPPHD",
" <JYWWWEPLKKLJUWWYLLc%3LT/[{]/TPKKKKJMvmDKKDmvvvy<",
"o3DJKLLLLLKLLLLLLLLPc@:vJT/'/PJHJKKKJvvKKKLLHji5-#",
"5rjDLLLLKKKLLKKLKKLLv@o&cPPPYPZlALKKKHHKKKKKHl2%8v",
"iiivvZDKLHmMMmMZHKJz8-&-4yywuvvixAJKJAMZHKKKDr>2cK"
};
